<?xml version="1.0" encoding="UTF-8"?>
<svg version="1.1" xmlns="http://www.w3.org/2000/svg" width="1024" height="1024">
<path d="M0 0 C337.92 0 675.84 0 1024 0 C1024 337.92 1024 675.84 1024 1024 C686.08 1024 348.16 1024 0 1024 C0 686.08 0 348.16 0 0 Z " fill="#FEFEFC" transform="translate(0,0)"/>
<path d="M0 0 C1.14976318 -0.00435059 2.29952637 -0.00870117 3.48413086 -0.01318359 C5.24188843 0.00107666 5.24188843 0.00107666 7.03515625 0.015625 C8.27080322 0.02384277 9.5064502 0.03206055 10.77954102 0.04052734 C47.27673752 0.48929303 82.11654199 15.55606271 107.765625 41.51391602 C134.89869582 70.05714476 146.78622468 106.7857351 146.24609375 145.69140625 C145.47129864 175.95287098 134.08593654 206.45291379 114.09765625 229.265625 C113.24171875 230.24273437 112.38578125 231.21984375 111.50390625 232.2265625 C86.2971244 260.54838699 51.91891298 277.82866669 14.09765625 281.265625 C10.59617036 281.37802746 7.10045972 281.36121835 3.59765625 281.328125 C2.67984375 281.32361328 1.76203125 281.31910156 0.81640625 281.31445312 C-1.42324766 281.30278826 -3.6627592 281.28642114 -5.90234375 281.265625 C-5.91190966 306.48332268 -5.88722621 331.70078718 -5.82206535 356.91840744 C-5.79260172 368.62810666 -5.77423384 380.33762477 -5.78222656 392.04736328 C-5.78916676 402.25673756 -5.77504403 412.46583139 -5.73590767 422.6751368 C-5.71592404 428.07811631 -5.7062987 433.48065575 -5.72192001 438.88365936 C-5.73631004 443.97610532 -5.72239657 449.06771289 -5.68739128 454.16005135 C-5.67946603 456.02233706 -5.68161024 457.88469918 -5.69495201 459.74695396 C-5.77294312 471.6456878 -5.05774997 481.39426911 3.29776192 490.7216301 C10.06657607 497.47096415 18.23285841 500.68788158 27.7482605 500.79344177 C28.6566568 500.78369827 29.5650531 500.77395477 30.50097656 500.76391602 C31.98100662 500.77219421 31.98100662 500.77219421 33.49093628 500.78063965 C35.61445382 500.78990395 37.73802695 500.79011135 39.86154938 500.78204536 C43.22477275 500.76934626 46.58718386 500.78076718 49.95037842 500.79808044 C55.87293348 500.82469745 61.7952871 500.83037893 67.71789551 500.82897949 C77.21044987 500.82674482 86.70275629 500.84087237 96.19521332 500.88456535 C99.50456349 500.89439399 102.81352175 500.88569417 106.12286377 500.87586975 C108.15254981 500.88201358 110.18223372 500.88892518 112.21191406 500.89672852 C113.12840729 500.88900925 114.04490051 500.88128998 114.98916626 500.87333679 C121.15400569 500.92222997 125.5427406 501.84492631 130.1796875 506.23828125 C131.03626953 507.27275391 131.03626953 507.27275391 131.91015625 508.328125 C132.78607422 509.36646484 132.78607422 509.36646484 133.6796875 510.42578125 C135.8706118 513.2685508 136.22523657 514.94913814 136.24482727 518.47647095 C136.25556023 519.80110352 136.25556023 519.80110352 136.26651001 521.15249634 C136.26919891 522.12391571 136.27188782 523.09533508 136.2746582 524.09619141 C136.2812294 525.1175116 136.2878006 526.13883179 136.29457092 527.19110107 C136.31433803 530.58313058 136.32597564 533.97511569 136.3359375 537.3671875 C136.34001303 538.52481976 136.34408855 539.68245201 136.34828758 540.87516403 C136.36916531 547.00515313 136.38345828 553.13511973 136.39282227 559.26513672 C136.40387543 565.59363251 136.43825827 571.9217756 136.47799397 578.25014687 C136.50416096 583.11783495 136.51251433 587.98543914 136.51610374 592.85319138 C136.52097137 595.18553416 136.53259031 597.51787316 136.55114174 599.85014725 C136.57552848 603.11994427 136.57456828 606.38883099 136.56762695 609.65869141 C136.58684204 611.09760239 136.58684204 611.09760239 136.60644531 612.56558228 C136.55972259 618.62144326 135.55821277 623.2156888 132.09765625 628.265625 C129.59765625 630.640625 129.59765625 630.640625 127.09765625 632.265625 C126.55018938 632.62389207 126.00272252 632.98215913 125.43866575 633.35128278 C122.04556123 634.67654811 118.73094137 634.54096768 115.14150429 634.52010059 C113.9241811 634.52491031 113.9241811 634.52491031 112.68226552 634.52981719 C109.94554635 634.53816059 107.20904356 634.53217778 104.47232056 634.52632141 C102.49736364 634.52934012 100.5224079 634.53322818 98.54745424 634.53791398 C93.10670146 634.54823896 87.66601424 634.54600074 82.22525597 634.54173338 C76.36284541 634.53927429 70.50045098 634.54827014 64.63804626 634.55577087 C53.14760621 634.56854278 41.65718949 634.57030846 30.16674353 634.56797061 C20.8300259 634.56613926 11.49331431 634.56789423 2.15659714 634.57219505 C0.81606811 634.57279745 -0.52446092 634.57339865 -1.86498994 634.57399866 C-3.88494649 634.57490589 -5.90490303 634.57581456 -7.92485957 634.57673101 C-26.71041683 634.58516308 -45.4959715 634.58949449 -64.28153038 634.58532429 C-64.99000507 634.58516791 -65.69847976 634.58501154 -66.42842338 634.58485042 C-70.01939941 634.58404462 -73.61037543 634.58319885 -77.20135145 634.58233712 C-77.91455301 634.58216603 -78.62775456 634.58199494 -79.36256829 634.58181867 C-80.80483589 634.58147202 -82.24710348 634.58112349 -83.68937108 634.58077308 C-106.13244782 634.57541554 -128.57548528 634.58334619 -151.01855469 634.60180664 C-176.22361111 634.62251458 -201.42864319 634.63325164 -226.6337086 634.62923115 C-229.32035676 634.6288358 -232.00700493 634.62847425 -234.69365311 634.62813377 C-235.68596092 634.62799768 -235.68596092 634.62799768 -236.69831535 634.62785883 C-246.69268272 634.62669199 -256.68701731 634.63338381 -266.68137741 634.64394569 C-278.04584339 634.65583358 -289.41025154 634.6572936 -300.77471827 634.64515553 C-306.57589031 634.63924854 -312.37695645 634.6382175 -318.17812157 634.65015793 C-323.48535696 634.66095499 -328.79239725 634.65798739 -334.09962328 634.64389624 C-336.02288161 634.6412322 -337.94615494 634.64366894 -339.86939864 634.65163211 C-342.47800659 634.66168601 -345.08592949 634.65336101 -347.69450951 634.64035511 C-348.4460855 634.64766446 -349.1976615 634.6549738 -349.97201252 634.66250464 C-355.677513 634.60329764 -359.72146095 633.25505626 -363.94921875 629.3984375 C-364.51125 628.73585938 -365.07328125 628.07328125 -365.65234375 627.390625 C-366.2246875 626.73320313 -366.79703125 626.07578125 -367.38671875 625.3984375 C-371.22208879 620.00124152 -371.19451857 615.04075276 -371.17700195 608.64526367 C-371.18211288 607.68202682 -371.18722382 606.71878998 -371.19248962 605.72636414 C-371.2063775 602.54537727 -371.20542917 599.36460732 -371.203125 596.18359375 C-371.20701289 593.96787943 -371.21134775 591.75216586 -371.21611023 589.53645325 C-371.2235711 584.89203476 -371.22328248 580.24769228 -371.21801758 575.60327148 C-371.2122288 569.6616457 -371.2291405 563.72033222 -371.25236225 557.77875805 C-371.26712097 553.20187063 -371.26796827 548.62505801 -371.26485252 544.04815102 C-371.26536484 541.85817154 -371.27058577 539.66818778 -371.28066444 537.47823143 C-371.29305021 534.41000695 -371.28622361 531.34238532 -371.2746582 528.27416992 C-371.28230194 527.3757135 -371.28994568 526.47725708 -371.29782104 525.55157471 C-371.24360078 519.01832455 -370.33929824 513.24816631 -366.0703125 508.0234375 C-365.41675781 507.48460937 -364.76320313 506.94578125 -364.08984375 506.390625 C-363.44402344 505.83632813 -362.79820312 505.28203125 -362.1328125 504.7109375 C-356.23475444 500.88907851 -350.36640392 500.98302204 -343.5859375 501.02270508 C-342.56082062 501.02080673 -341.53570374 501.01890839 -340.47952271 501.01695251 C-337.09955128 501.01325559 -333.719796 501.02393427 -330.33984375 501.03515625 C-327.986247 501.03634885 -325.63264977 501.03680104 -323.27905273 501.0365448 C-318.34974176 501.03810784 -313.4205036 501.04638361 -308.49121094 501.05981445 C-302.17622417 501.0768039 -295.86131737 501.08062864 -289.54631042 501.07986927 C-284.6872888 501.08014135 -279.82828462 501.08562868 -274.9692688 501.09287071 C-272.64088066 501.09605029 -270.31249054 501.09802313 -267.98410034 501.09876442 C-264.72894941 501.1009355 -261.47388278 501.10969647 -258.21875 501.12036133 C-257.25856964 501.11990814 -256.29838928 501.11945496 -255.30911255 501.11898804 C-254.41763519 501.12325302 -253.52615784 501.12751801 -252.60766602 501.13191223 C-251.45513084 501.134426 -251.45513084 501.134426 -250.27931213 501.13699055 C-247.46587648 501.28924531 -244.68156034 501.80242223 -241.90234375 502.265625 C-241.90234375 390.395625 -241.90234375 278.525625 -241.90234375 163.265625 C-248.17234375 166.565625 -254.44234375 169.865625 -260.90234375 173.265625 C-285.04408523 182.86041969 -308.09087814 187.3901645 -334.06054688 187.61572266 C-335.46240693 187.63241147 -336.8641776 187.6598682 -338.265625 187.69775391 C-348.46006722 187.96963722 -355.21564519 186.92100705 -363.20703125 180.37890625 C-363.72523438 179.78464844 -364.2434375 179.19039062 -364.77734375 178.578125 C-365.31101562 177.99675781 -365.8446875 177.41539062 -366.39453125 176.81640625 C-370.74763903 169.45221097 -371.36936052 161.44518776 -371.37109375 153.0703125 C-371.37870728 152.03802521 -371.3863208 151.00573792 -371.39416504 149.94216919 C-371.40489947 147.77576094 -371.40784651 145.60930121 -371.40332031 143.44287109 C-371.40234416 140.14202674 -371.44412396 136.84348084 -371.48828125 133.54296875 C-371.49348652 131.42708813 -371.49617647 129.31119952 -371.49609375 127.1953125 C-371.51248901 126.21803192 -371.52888428 125.24075134 -371.54577637 124.2338562 C-371.4802323 117.69654483 -370.1581871 113.30589868 -365.90234375 108.265625 C-361.63646954 104.67269391 -357.92008377 103.55257852 -352.46484375 102.640625 C-351.76456055 102.51856689 -351.06427734 102.39650879 -350.34277344 102.27075195 C-345.79358121 101.49873991 -341.23896102 100.95940734 -336.65234375 100.453125 C-298.79955247 95.58690736 -265.28787438 72.68794955 -240.90234375 44.265625 C-239.92347181 43.13776497 -238.94428554 42.0101777 -237.96484375 40.8828125 C-233.41328378 35.62463072 -228.91443781 30.33827256 -224.58984375 24.890625 C-223.64625 23.70919922 -223.64625 23.70919922 -222.68359375 22.50390625 C-221.52744712 21.05111673 -220.38097711 19.59055357 -219.24609375 18.12109375 C-213.704986 11.28618961 -206.29014524 6.05129448 -197.90234375 3.265625 C-194.5435257 3.0094986 -194.5435257 3.0094986 -190.63098145 3.00061035 C-189.90900936 2.99622908 -189.18703727 2.99184781 -188.44318724 2.98733377 C-186.0291187 2.97503359 -183.61526808 2.97682057 -181.20117188 2.97851562 C-179.46785155 2.97248978 -177.73453415 2.96556512 -176.0012207 2.95780945 C-172.26952761 2.94292444 -168.537888 2.93417206 -164.8061676 2.93009949 C-158.89607419 2.9233769 -152.98609462 2.90160884 -147.0760498 2.87756348 C-134.51817452 2.82859424 -121.96027498 2.79631325 -109.40234375 2.765625 C-95.87152777 2.73250622 -82.34075633 2.69640524 -68.81000853 2.64149427 C-62.9453688 2.61825687 -57.08080761 2.60443216 -51.21612644 2.59799957 C-47.55096375 2.59202218 -43.88586386 2.57789167 -40.22073364 2.56165504 C-38.53301315 2.5558242 -36.84527714 2.55329733 -35.157547 2.55449486 C-26.44310509 2.55891168 -18.10704361 2.26523417 -9.49598598 0.71830368 C-6.31574308 0.16324325 -3.22566489 0.00716303 0 0 Z " fill="#0E233E" transform="translate(639.90234375,199.734375)"/>
<path d="M0 0 C10.64562879 8.34473732 19.08807325 17.73997085 26.3125 29.1875 C27.01375 30.27804687 27.715 31.36859375 28.4375 32.4921875 C43.19818488 56.70194717 47.47174564 87.52377585 41.34765625 115.14453125 C33.59261104 146.54206782 15.77341895 171.94445328 -11.84814453 189.14013672 C-24.70770867 196.89322542 -37.86051309 201.67254273 -52.6875 204.1875 C-53.43773437 204.31898438 -54.18796875 204.45046875 -54.9609375 204.5859375 C-83.48803912 208.63000938 -113.8375129 200.21650471 -136.91796875 183.14453125 C-162.33808103 163.4978004 -179.14494067 136.24758298 -183.6875 104.1875 C-185.31645705 73.11637826 -180.91996319 42.40000455 -159.54467773 18.2902832 C-157.31211901 15.86806257 -155.0047354 13.52898151 -152.6875 11.1875 C-152.02105469 10.46046875 -151.35460937 9.7334375 -150.66796875 8.984375 C-134.11436262 -8.71927114 -110.11371763 -18.14363205 -86.6875 -21.8125 C-85.53378906 -21.998125 -84.38007812 -22.18375 -83.19140625 -22.375 C-53.78191867 -26.04708764 -23.53617195 -17.72494269 0 0 Z " fill="#FE884A" transform="translate(714.6875,248.8125)"/>
<path d="M0 0 C0.33 0 0.66 0 1 0 C1.17390259 1.3317627 1.17390259 1.3317627 1.35131836 2.69042969 C1.78370637 5.99308753 2.21817765 9.29545753 2.65405273 12.59765625 C2.84206006 14.02528119 3.02924313 15.45301494 3.21557617 16.88085938 C3.48398221 18.93649176 3.75537732 20.99171102 4.02734375 23.046875 C4.18968506 24.28276367 4.35202637 25.51865234 4.51928711 26.79199219 C4.8905503 29.26959415 5.34900128 31.58899291 6 34 C6.68586883 37.73417472 6.57439226 40.08647188 4.53125 43.3359375 C3.14500628 45.16775956 1.74961325 46.99267575 0.34765625 48.8125 C-8.40709656 60.69915273 -13.96065597 74.21715297 -19 88 C-19.4228125 89.14082031 -19.845625 90.28164063 -20.28125 91.45703125 C-24.7264692 104.57379548 -26.37455463 119.20341096 -27 133 C-27.06445312 134.11117187 -27.12890625 135.22234375 -27.1953125 136.3671875 C-28.5156372 178.70559968 -9.41284497 220.39413859 19.125 251 C42.77519676 275.76546711 71.57565965 293.19188655 104 304 C104 314.89 104 325.78 104 337 C99.50130187 336.25021698 96.52472988 335.57670275 92.46484375 333.8828125 C91.41876953 333.44654541 90.37269531 333.01027832 89.29492188 332.56079102 C88.18697266 332.08697998 87.07902344 331.61316895 85.9375 331.125 C84.78443359 330.63249756 83.63136719 330.13999512 82.44335938 329.63256836 C45.50285307 313.62009159 11.00913661 289.88555421 -14 258 C-14.76699219 257.0615625 -15.53398437 256.123125 -16.32421875 255.15625 C-40.56048172 224.87067823 -56.95948556 187.13239074 -58 148 C-58.02046387 147.2766748 -58.04092773 146.55334961 -58.06201172 145.80810547 C-59.4391705 89.73156561 -34.59158419 44.33450475 -1 1 C-0.67 0.67 -0.34 0.34 0 0 Z " fill="#FCFCFA" transform="translate(502,339)"/>
<path d="M0 0 C1.72274472 2.58411708 2.84623549 4.81443017 4.03125 7.65625 C13.89286137 31.00078576 25.31159123 52.04988426 41 72 C41.74894531 72.95519531 42.49789062 73.91039062 43.26953125 74.89453125 C56.02115803 90.53786553 70.58025972 105.22718343 87 117 C88.31016961 117.96577454 89.62005242 118.93193825 90.9296875 119.8984375 C105.76645053 130.72073197 121.46138083 140.19161968 138.05224609 148.06884766 C140.02017182 149.00964343 141.97319809 149.97703228 143.92578125 150.94921875 C171.54422588 164.53903438 202.90979217 175.35079798 233 182 C234.26328125 182.28101563 235.5265625 182.56203125 236.828125 182.8515625 C259.31837316 187.28689033 282.37504767 188.38221839 305.24536133 188.53369141 C305.98526306 188.54385284 306.72516479 188.55401428 307.48748779 188.56448364 C309.49357702 188.59190048 311.49985775 188.60411734 313.50610352 188.61523438 C318.08076259 189.11901906 321.41862059 190.59174002 324.85546875 193.65234375 C326.6047592 197.24047878 326.39553103 200.62682929 326.3125 204.5625 C326.31733398 205.71395508 326.31733398 205.71395508 326.32226562 206.88867188 C326.28513936 210.75992864 326.19084972 212.71372542 324 216 C321.61523438 216.28051758 321.61523438 216.28051758 318.59375 216.14453125 C317.47129883 216.10030029 316.34884766 216.05606934 315.19238281 216.01049805 C313.36465332 215.91248901 313.36465332 215.91248901 311.5 215.8125 C310.23768555 215.75425049 308.97537109 215.69600098 307.67480469 215.63598633 C303.78164747 215.44609401 299.8910634 215.22859249 296 215 C294.89333984 214.93651367 293.78667969 214.87302734 292.64648438 214.80761719 C279.48287058 214.01487331 266.398239 212.66726438 253.3125 211.0625 C252.01280273 210.90483154 250.71310547 210.74716309 249.37402344 210.5847168 C175.86745265 201.22037397 99.63013503 169.79289819 45 119 C43.71180139 117.89178922 42.42021142 116.78750644 41.125 115.6875 C31.83779901 107.56354439 23.60619464 98.70534887 16 89 C15.05956442 87.82604467 14.11810653 86.65290777 13.17578125 85.48046875 C12.19997723 84.25824631 11.22471011 83.035595 10.25 81.8125 C9.80197021 81.25449707 9.35394043 80.69649414 8.89233398 80.12158203 C8.035554 79.03640166 7.19426152 77.93875634 6.37133789 76.8276825 C5.50710356 75.67585408 4.61048752 74.54699683 3.67164612 73.4551239 C-1.36372515 66.85730958 -0.63418269 59.45420654 -0.48828125 51.5625 C-0.47894123 50.07178947 -0.47183074 48.58106347 -0.46684265 47.09033203 C-0.44786576 43.19045707 -0.39884843 39.29153177 -0.34332275 35.39202881 C-0.29192696 31.40341026 -0.26928553 27.41463638 -0.24414062 23.42578125 C-0.19071795 15.61675728 -0.10552173 7.80851233 0 0 Z " fill="#FBFCFA" transform="translate(425,540)"/>
<path d="M0 0 C0.70178375 0.00424484 1.4035675 0.00848969 2.12661743 0.01286316 C4.3478381 0.02953276 6.56812038 0.06716003 8.7890625 0.10546875 C10.30337223 0.12053087 11.81769631 0.13421659 13.33203125 0.14648438 C17.02634182 0.17939692 20.72011043 0.23109616 24.4140625 0.29296875 C21.87834485 4.91489047 19.20664984 9.03028399 15.9140625 13.16796875 C12.00607945 18.14721267 8.28950524 23.22976274 4.6640625 28.41796875 C-25.56325981 71.5446308 -56.97437431 110.36035144 -109.5859375 125.29296875 C-110.6076001 125.58469971 -110.6076001 125.58469971 -111.64990234 125.88232422 C-121.23767403 128.45846124 -130.9566096 128.55476812 -140.8359375 128.66796875 C-142.08890625 128.70535156 -143.341875 128.74273437 -144.6328125 128.78125 C-153.58348656 128.86731417 -153.58348656 128.86731417 -157.90625 126.390625 C-160.29382053 121.98750074 -160.31880417 118.2921665 -160.2109375 113.35546875 C-160.23994141 112.03385742 -160.23994141 112.03385742 -160.26953125 110.68554688 C-160.23393677 105.93368374 -159.92389793 102.01220258 -156.38769531 98.44018555 C-152.40822092 95.90637116 -147.72929146 95.42316682 -143.1484375 94.66796875 C-140.97588759 94.26271619 -138.80400325 93.85387865 -136.6328125 93.44140625 C-135.58802734 93.24772461 -134.54324219 93.05404297 -133.46679688 92.85449219 C-108.25347298 87.94003075 -84.32564587 75.56306968 -64.5859375 59.29296875 C-63.58304687 58.47441406 -62.58015625 57.65585937 -61.546875 56.8125 C-47.03361636 44.87942511 -35.31707652 31.21592513 -24.06835938 16.25976562 C-21.95525345 13.45621139 -19.82207943 10.67513872 -17.6484375 7.91796875 C-17.00003906 7.08523437 -16.35164062 6.2525 -15.68359375 5.39453125 C-11.0065102 0.70873805 -6.4531095 -0.07743731 0 0 Z " fill="#C1E8EA" transform="translate(454.5859375,230.70703125)"/>
<path d="M0 0 C0.66 0 1.32 0 2 0 C3.52114684 2.18160549 4.93188376 4.35668175 6.3125 6.625 C8.60689752 10.36951928 10.86189871 13.93190492 13.765625 17.23828125 C16.19120091 20.236327 16.55284643 21.79159307 16.3046875 25.6015625 C15.7965444 29.60156074 15.20691754 33.58276214 14.53515625 37.55859375 C9.40349028 70.5585771 16.43001479 100.97710025 35.69580078 128.22607422 C47.66556208 144.50692139 63.76129515 159.28790308 82.67211914 167.10449219 C85 169 85 169 85.56762695 172.64526367 C85.56683665 174.15306381 85.5386577 175.66101019 85.48828125 177.16796875 C85.48120651 177.96278152 85.47413177 178.7575943 85.46684265 179.57649231 C85.43885874 182.11445361 85.3761184 184.65020607 85.3125 187.1875 C85.28742205 188.90817125 85.26460799 190.6288771 85.24414062 192.34960938 C85.18901967 196.56725697 85.10272412 200.78325407 85 205 C70.67021734 200.55591301 57.07178448 193.92407923 45 185 C43.95714844 184.24074219 42.91429687 183.48148438 41.83984375 182.69921875 C29.83028937 173.80431697 19.01132494 163.97195773 10 152 C9.60216309 151.48244141 9.20432617 150.96488281 8.79443359 150.43164062 C-1.0508668 137.57090488 -8.21272707 124.16042047 -13.4375 108.8125 C-13.76766113 107.85166504 -14.09782227 106.89083008 -14.43798828 105.90087891 C-18.53940434 93.23606667 -19.41411973 80.4953875 -19.375 67.25 C-19.37445618 66.55100586 -19.37391235 65.85201172 -19.37335205 65.13183594 C-19.33370258 54.01222198 -18.52660071 43.60627811 -15 33 C-14.77505859 32.31067383 -14.55011719 31.62134766 -14.31835938 30.91113281 C-10.74132848 20.20467533 -6.29060476 9.41047342 0 0 Z " fill="#FCFDFA" transform="translate(521,409)"/>
<path d="M0 0 C3.98124914 -0.00972994 7.96198551 -0.0409085 11.94311523 -0.07226562 C33.73988466 -0.16268527 55.3451312 1.25652714 76.68334961 5.92773438 C77.8721875 6.18192139 79.06102539 6.4361084 80.28588867 6.69799805 C110.73964681 13.42189482 139.90891045 24.2075914 168.18334961 37.24023438 C169.16577637 37.69156738 170.14820313 38.14290039 171.16040039 38.60791016 C184.47355892 44.75807079 197.38601846 51.48738311 210.20727539 58.59863281 C215.76219739 61.66272597 221.34840989 64.66881394 226.93334961 67.67773438 C228.53980347 68.54652222 228.53980347 68.54652222 230.17871094 69.43286133 C236.45876463 72.81783735 242.77994998 76.09459545 249.18334961 79.24023438 C249.18334961 79.57023438 249.18334961 79.90023437 249.18334961 80.24023438 C243.17361236 80.44012329 237.16586773 80.58414796 231.15356445 80.6796875 C229.11480956 80.71956849 227.07627818 80.77389632 225.03833008 80.84375 C211.26360601 81.30358369 202.48657415 80.41422729 191.18334961 72.24023438 C189.8834534 71.50470065 188.56863404 70.79373207 187.23022461 70.13085938 C185.59827148 69.31875 185.59827148 69.31875 183.93334961 68.49023438 C181.02544583 67.05494635 178.10732085 65.64248794 175.18334961 64.24023438 C174.24974609 63.79131836 173.31614258 63.34240234 172.35424805 62.87988281 C142.28973573 48.50621926 111.3159189 36.38360334 78.36694336 30.6328125 C76.36145306 30.27225476 74.36539077 29.86025118 72.37084961 29.44335938 C35.89250757 22.11779069 -2.32910507 22.63635342 -39.15258789 26.58398438 C-41.37350598 26.80711829 -43.5948129 27.02644932 -45.81665039 27.24023438 C-46.65486328 27.32917969 -47.49307617 27.418125 -48.35668945 27.50976562 C-51.90640044 27.73825277 -53.48280606 27.51016231 -56.28540039 25.24414062 C-58.19519155 21.49763706 -58.40708749 18.28885408 -58.31665039 14.17773438 C-58.33211914 13.47068359 -58.34758789 12.76363281 -58.36352539 12.03515625 C-58.33748783 8.56890616 -58.08811105 6.59853944 -55.97290039 3.80664062 C-52.81705082 1.51407599 -50.15035065 1.10022618 -46.35693359 0.93261719 C-45.44324509 0.89191101 -44.52955658 0.85120483 -43.58818054 0.80926514 C-42.5872084 0.77101624 -41.58623627 0.73276733 -40.55493164 0.69335938 C-39.49800613 0.65172668 -38.44108063 0.61009399 -37.35212708 0.56719971 C-24.90394589 0.11735433 -12.45537555 0.01830663 0 0 Z " fill="#8AC6D6" transform="translate(352.816650390625,728.759765625)"/>
<path d="M0 0 C3.28731688 1.09577229 3.88003756 1.77804601 6 4.375 C13.84287792 13.58543857 22.52909991 21.50272129 32 29 C33.10960678 29.90959039 34.21760736 30.82114276 35.32421875 31.734375 C109.80522245 92.85514359 200.80115472 120.93297749 295.5546875 128.38671875 C296.2457962 128.442939 296.93690491 128.49915924 297.6489563 128.55708313 C301.32558911 128.84374776 304.98575177 129.04121747 308.67285156 129.12744141 C309.44041779 129.15207962 310.20798401 129.17671783 310.99880981 129.20210266 C312.46129509 129.24575614 313.92452907 129.27027161 315.38766479 129.27189636 C319.2415238 129.40094032 320.90070906 129.92041095 323.94677734 132.36206055 C326.40075161 135.51487767 326.62090455 137.05045134 326.5 141 C326.4896875 142.010625 326.479375 143.02125 326.46875 144.0625 C325.78905434 148.32192611 324.01732694 150.98267306 321 154 C309.2560447 155.05053499 297.38152945 153.39062396 285.75 151.875 C284.87971161 151.76395935 284.00942322 151.6529187 283.11276245 151.53851318 C267.53086159 149.53543846 252.24789293 146.83478541 237 143 C235.40744385 142.60192139 235.40744385 142.60192139 233.78271484 142.19580078 C198.24045161 133.14661399 166.05556504 117.43935743 133.87109375 100.26953125 C114.11106414 89.73239331 94.04661907 79.71127607 73 72 C71.88157715 71.58540527 70.7631543 71.17081055 69.61083984 70.74365234 C52.15694205 64.33027379 34.65027561 59.09297829 16.52734375 54.90454102 C15.41585968 54.64315086 15.41585968 54.64315086 14.28192139 54.3764801 C12.27366799 53.90615795 10.26241137 53.448712 8.25097656 52.9921875 C5.14370325 52.04385777 3.31349895 51.24779837 1 49 C0.04837628 46.14512885 -0.12163139 44.39545683 -0.11352539 41.43676758 C-0.11344986 40.51603958 -0.11337433 39.59531158 -0.11329651 38.64668274 C-0.10813522 37.65597275 -0.10297394 36.66526276 -0.09765625 35.64453125 C-0.0962413 34.62775803 -0.09482635 33.6109848 -0.09336853 32.56340027 C-0.08776707 29.31307036 -0.07521432 26.06280912 -0.0625 22.8125 C-0.05748519 20.61002704 -0.05292225 18.40755299 -0.04882812 16.20507812 C-0.03779717 10.80336196 -0.02105762 5.40168588 0 0 Z " fill="#8AC6D6" transform="translate(425,655)"/>
<path d="M0 0 C1.27371712 0.0541935 1.27371712 0.0541935 2.57316589 0.10948181 C3.89431648 0.12433876 3.89431648 0.12433876 5.24215698 0.13949585 C8.04561914 0.17857342 10.84511371 0.26637414 13.64738464 0.35557556 C15.55162482 0.39069839 17.4559266 0.42263571 19.36027527 0.45127869 C24.01999888 0.52831282 28.67677003 0.6490428 33.33488464 0.79307556 C32.38850426 1.92176365 31.43860279 3.04749998 30.48722839 4.17198181 C29.69433411 5.11279602 29.69433411 5.11279602 28.88542175 6.07261658 C27.33488464 7.79307556 27.33488464 7.79307556 24.89738464 9.73057556 C13.02253501 19.28838137 4.10203056 33.96311134 -4.56745911 46.37510681 C-7.70125204 50.85948394 -10.89410433 55.29945398 -14.10261536 59.73057556 C-14.64329651 60.47734558 -15.18397766 61.2241156 -15.74104309 61.99351501 C-16.83664725 63.50625958 -17.93243189 65.01887344 -19.02839661 66.53135681 C-20.650206 68.77247289 -22.26776667 71.01658871 -23.88386536 73.26182556 C-28.83417316 80.13616703 -33.80271861 86.9941596 -38.84773254 93.79942322 C-50.85601792 110.00760139 -62.54387764 126.32583568 -72.66511536 143.79307556 C-73.16285461 144.6462738 -73.66059387 145.49947205 -74.17341614 146.37852478 C-81.71980444 159.41620536 -87.75718922 172.54951614 -92.66511536 186.79307556 C-92.99511536 186.79307556 -93.32511536 186.79307556 -93.66511536 186.79307556 C-93.89746153 177.03985775 -94.0748186 167.28730462 -94.18323708 157.53187656 C-94.23529157 153.00116362 -94.30581105 148.47235224 -94.41950989 143.94273376 C-94.52867806 139.56590231 -94.58805974 135.19089166 -94.61388779 130.81280327 C-94.63227642 129.14808938 -94.66818964 127.48346829 -94.72241592 125.81953621 C-95.12942746 112.80525256 -95.12942746 112.80525256 -91.5327301 107.86286926 C-89.01905923 105.58990975 -86.45704433 103.70608214 -83.66511536 101.79307556 C-77.00366708 95.65049954 -71.29774826 88.87204641 -65.66511536 81.79307556 C-64.69365855 80.59939008 -63.72094081 79.40672998 -62.74714661 78.21495056 C-57.11311574 71.29147244 -51.80882323 64.28135349 -46.79792786 56.89073181 C-44.72334901 53.877653 -42.56443189 50.95648981 -40.35261536 48.04307556 C-35.14501466 41.16289478 -30.19841087 34.10643957 -25.24421692 27.04258728 C-22.57914457 23.24605409 -19.9030049 19.45734162 -17.22761536 15.66807556 C-16.74381409 14.98205261 -16.26001282 14.29602966 -15.7615509 13.58921814 C-15.29789124 12.93203796 -14.83423157 12.27485779 -14.35652161 11.59776306 C-13.95634827 11.03041443 -13.55617493 10.4630658 -13.14387512 9.87852478 C-12.6558844 9.19032654 -12.16789368 8.5021283 -11.66511536 7.79307556 C-11.19189095 6.91627388 -11.19189095 6.91627388 -10.70910645 6.02175903 C-7.81471183 1.11513143 -5.66630268 -0.00374272 0 0 Z " fill="#FBFDFB" transform="translate(518.6651153564453,230.20692443847656)"/>
<path d="M0 0 C1.11622742 -0.00331329 2.23245483 -0.00662659 3.38250732 -0.01004028 C42.96647797 -0.0794935 81.1621605 6.59928259 118.0625 21.125 C119.89433838 21.84538452 119.89433838 21.84538452 121.76318359 22.58032227 C130.34832728 26.03582728 130.34832728 26.03582728 132.625 28.3125 C122.54751209 28.35948353 112.47005152 28.39469598 102.39247513 28.41612434 C97.7096893 28.42642487 93.02698005 28.44032196 88.34423828 28.46337891 C70.00410054 28.55133849 51.79711344 28.58132731 33.50984192 27.03559875 C21.59721097 26.05858667 9.71032573 26.04558859 -2.23608398 26.10668945 C-5.99534727 26.12528616 -9.7543667 26.12719571 -13.51367188 26.12695312 C-15.94791877 26.13185929 -18.38216404 26.13768363 -20.81640625 26.14453125 C-21.91860001 26.14564407 -23.02079376 26.1467569 -24.15638733 26.14790344 C-30.11138075 26.18408708 -35.96807102 26.45649331 -41.8918457 27.0763855 C-46.19485675 27.48554385 -50.49266943 27.5754985 -54.8125 27.625 C-55.68326172 27.65400391 -56.55402344 27.68300781 -57.45117188 27.71289062 C-63.7341973 27.77557622 -63.7341973 27.77557622 -66.91015625 25.48046875 C-69.37846292 21.82737488 -69.5862373 18.68665907 -69.6875 14.375 C-69.74357422 12.81458984 -69.74357422 12.81458984 -69.80078125 11.22265625 C-69.27232191 7.61070938 -68.22033102 6.52211743 -65.375 4.3125 C-45.78030606 -2.21906465 -20.33212951 0.00874738 0 0 Z " fill="#8AC6D5" transform="translate(364.375,780.6875)"/>
<path d="M0 0 C2.67499353 1.29122362 5.17339085 2.69781179 7.66015625 4.3203125 C19.18273743 11.69190991 30.99865838 17.66621946 44 22 C44 45.76 44 69.52 44 94 C37.29318835 90.1675362 32.52799511 86.24116517 27 81 C26.28328125 80.33613281 25.5665625 79.67226563 24.828125 78.98828125 C8.71858172 63.59679901 -1.35809667 41.16550912 -2.1875 18.9375 C-2.3194291 12.2344279 -2.0816561 6.38539749 0 0 Z " fill="#8CC8D6" transform="translate(562,453)"/>
<path d="M0 0 C6.95262725 6.02561028 10.26801658 17.01515549 12.8125 25.625 C13.0069873 26.28000488 13.20147461 26.93500977 13.40185547 27.60986328 C16.21395695 37.69830826 17.37000085 47.73138149 17.3125 58.1875 C17.30686035 59.27683838 17.3012207 60.36617676 17.29541016 61.48852539 C17.03432867 79.00295685 13.24369139 96.42040467 5 112 C4.67 112 4.34 112 4 112 C4 110.35 4 108.7 4 107 C4.66 107 5.32 107 6 107 C6.12375 106.278125 6.2475 105.55625 6.375 104.8125 C7 102 7 102 7.94140625 99.77734375 C9.19999268 96.47529595 9.87044407 93.21390298 10.5625 89.75 C11.8923476 83.1076524 11.8923476 83.1076524 13 82 C15.90525228 66.51945863 15.28089141 51.49784253 13 36 C12.34 36 11.68 36 11 36 C11.04382813 34.99324219 11.08765625 33.98648438 11.1328125 32.94921875 C10.79548731 22.91875512 5.80408362 13.0045994 1.13671875 4.29296875 C0 2 0 2 0 0 Z " fill="#CE6B5F" transform="translate(741,280)"/>
<path d="M0 0 C5.17201521 0.5693226 9.12081305 2.22862306 13.6875 4.5625 C14.39084473 4.91965088 15.09418945 5.27680176 15.81884766 5.64477539 C32.42292918 14.28807382 48.89278664 28.42844314 58 45 C58 45.66 58 46.32 58 47 C57.34 47 56.68 47 56 47 C56 46.01 56 45.02 56 44 C55.34 44 54.68 44 54 44 C52.85560517 42.2893067 51.78416025 40.52950097 50.75 38.75 C47.88875573 34.07123578 45.65188898 31.72305696 41 29 C41 28.01 41 27.02 41 26 C40.34 26 39.68 26 39 26 C36.875 24.125 36.875 24.125 35 22 C35 21.34 35 20.68 35 20 C33.02 19.34 31.04 18.68 29 18 C29 17.34 29 16.68 29 16 C28.34 16 27.68 16 27 16 C27 15.34 27 14.68 27 14 C23.54959836 12.55074594 23.54959836 12.55074594 19.9375 11.625 C17.26461638 10.76277948 15.96616822 8.96616822 14 7 C11.8618034 6.2127322 11.8618034 6.2127322 10 6 C10 5.34 10 4.68 10 4 C8.35 4 6.7 4 5 4 C5 3.34 5 2.68 5 2 C3.35 1.67 1.7 1.34 0 1 C0 0.67 0 0.34 0 0 Z " fill="#D67563" transform="translate(683,233)"/>
<path d="M0 0 C0.66 0 1.32 0 2 0 C2.22786458 2.05078125 2.45572917 4.1015625 2.68359375 6.15234375 C2.81886614 8.01140229 2.81886614 8.01140229 4 9 C4.11375404 11.58709199 4.16419608 14.14635942 4.16796875 16.734375 C4.17129715 17.52338196 4.17462555 18.31238892 4.17805481 19.12530518 C4.18313388 20.80667538 4.18546284 22.48805573 4.18530273 24.16943359 C4.18745553 26.69777123 4.20550477 29.22564794 4.22460938 31.75390625 C4.3252919 60.40206574 4.3252919 60.40206574 -4 71 C-2.64473431 64.08017282 -1.18764204 57.18588374 0.31640625 50.296875 C0.54199219 49.20890625 0.76757812 48.1209375 1 47 C1.28617188 45.67355469 1.28617188 45.67355469 1.578125 44.3203125 C2.22117811 39.25924635 2.19054676 34.22184547 2.1875 29.125 C2.18814453 28.01906494 2.18878906 26.91312988 2.18945312 25.77368164 C2.13354837 17.04173957 1.4374964 8.6121436 0 0 Z " fill="#291927" transform="translate(755,310)"/>
<path d="M0 0 C0.33 0 0.66 0 1 0 C1.62206317 20.98887217 -1.03741578 41.17190185 -11 60 C-11.33 60 -11.66 60 -12 60 C-12 58.35 -12 56.7 -12 55 C-11.34 55 -10.68 55 -10 55 C-9.814375 53.9171875 -9.814375 53.9171875 -9.625 52.8125 C-9 50 -9 50 -8.05859375 47.77734375 C-6.80000732 44.47529595 -6.12955593 41.21390298 -5.4375 37.75 C-4.1076524 31.1076524 -4.1076524 31.1076524 -3 30 C-1.25960329 20.07430004 -0.54173321 10.05057664 0 0 Z " fill="#DA7160" transform="translate(757,332)"/>
<path d="M0 0 C0.66 0 1.32 0 2 0 C2 1.65 2 3.3 2 5 C2.66 5 3.32 5 4 5 C5.29243536 9.1196377 6.26252625 12.66831683 6 17 C6.66 17 7.32 17 8 17 C12.22323462 26.41002278 12.22323462 26.41002278 14 31 C14.66 31 15.32 31 16 31 C16.99 33.97 17.98 36.94 19 40 C15.35038747 36.7302114 12.98886326 32.98907526 10.625 28.75 C10.23578369 28.05487305 9.84656738 27.35974609 9.44555664 26.64355469 C6.72596312 21.64744433 4.43995921 16.572618 2.4375 11.25 C2.06069092 10.24984863 2.06069092 10.24984863 1.67626953 9.22949219 C0.49038858 5.91447394 0 3.57430834 0 0 Z " fill="#E29C5B" transform="translate(535,367)"/>
<path d="M0 0 C1.74627478 2.61941217 2.38722388 4.03824877 3 7 C2.34 7 1.68 7 1 7 C1 26.8 1 46.6 1 67 C0.67 67 0.34 67 0 67 C0 44.89 0 22.78 0 0 Z " fill="#EDF7FD" transform="translate(425,540)"/>
<path d="M0 0 C4.29 0.33 8.58 0.66 13 1 C13 1.66 13 2.32 13 3 C13.84304688 2.98839844 14.68609375 2.97679687 15.5546875 2.96484375 C16.65039062 2.95582031 17.74609375 2.94679688 18.875 2.9375 C20.51082031 2.92009766 20.51082031 2.92009766 22.1796875 2.90234375 C25 3 25 3 27 4 C29.37123246 4.23029956 31.74741943 4.41119942 34.125 4.5625 C35.40632812 4.64628906 36.68765625 4.73007812 38.0078125 4.81640625 C39.48894531 4.90728516 39.48894531 4.90728516 41 5 C41 5.33 41 5.66 41 6 C31.95795492 6.30903192 23.25067879 6.14692622 14.3125 4.625 C13.20092529 4.43587036 13.20092529 4.43587036 12.06689453 4.24291992 C7.90506181 3.48221093 3.98927425 2.44493398 0 1 C0 0.67 0 0.34 0 0 Z " fill="#C77C53" transform="translate(612,448)"/>
<path d="M0 0 C0.33 0.99 0.66 1.98 1 3 C0.01 3.33 -0.98 3.66 -2 4 C-3.05021103 5.84971696 -3.05021103 5.84971696 -4 8 C-4.495 8.639375 -4.99 9.27875 -5.5 9.9375 C-7.13987329 12.19232577 -8.05633911 14.38678522 -9 17 C-9.66 17 -10.32 17 -11 17 C-11 17.99 -11 18.98 -11 20 C-11.66 20 -12.32 20 -13 20 C-13.28875 20.86625 -13.5775 21.7325 -13.875 22.625 C-14.91666667 25.75 -15.95833333 28.875 -17 32 C-17.66 32 -18.32 32 -19 32 C-15.84613944 20.01532989 -8.70636929 8.7623588 0 0 Z " fill="#D99A5C" transform="translate(558,264)"/>
<path d="M0 0 C0.66 0 1.32 0 2 0 C-1.20899233 8.71461641 -6.79017365 16.18433694 -13 23 C-13.33 22.01 -13.66 21.02 -14 20 C-12.6015625 18.0625 -12.6015625 18.0625 -10.625 16 C-8.28526395 13.5390824 -7.08782959 12.26348876 -6 9 C-5.34 9 -4.68 9 -4 9 C-3.34 7.02 -2.68 5.04 -2 3 C-1.34 3 -0.68 3 0 3 C0 2.01 0 1.02 0 0 Z " fill="#DD6F5F" transform="translate(743,392)"/>
<path d="M0 0 C0.33 0 0.66 0 1 0 C1.17323579 10.91385482 1.0306444 21.1036818 -6 30 C-4.64473431 23.08017282 -3.18764204 16.18588374 -1.68359375 9.296875 C-1.04285249 6.20667143 -0.49578851 3.11638495 0 0 Z " fill="#37212A" transform="translate(757,351)"/>
<path d="M0 0 C1.046875 1.875 1.046875 1.875 2 4 C1.25 6 1.25 6 0 8 C-2.03786622 11.40155113 -2.36842269 14.31581452 -2.625 18.25 C-2.69976563 19.32765625 -2.77453125 20.4053125 -2.8515625 21.515625 C-2.90054688 22.33546875 -2.94953125 23.1553125 -3 24 C-3.66 24 -4.32 24 -5 24 C-5.76963893 15.22611622 -2.99062515 8.10673033 0 0 Z " fill="#D99B5E" transform="translate(538,296)"/>
<path d="M0 0 C1.98 0.99 1.98 0.99 4 2 C4 2.66 4 3.32 4 4 C4.66 4 5.32 4 6 4 C7.34331654 5.99330842 8.67594012 7.99384866 10 10 C10.99 10.66 11.98 11.32 13 12 C12.67 12.99 12.34 13.98 12 15 C10.18159615 13.06775868 8.37025532 11.12966092 6.5625 9.1875 C6.04623047 8.64029297 5.52996094 8.09308594 4.99804688 7.52929688 C2.68923395 5.03940058 1.08641486 3.25924458 0 0 Z " fill="#DB9A5A" transform="translate(554,407)"/>
<path d="M0 0 C1.305239 3.91571701 0.32239848 5.03892997 -1.4375 8.6875 C-1.91058594 9.68136719 -2.38367188 10.67523438 -2.87109375 11.69921875 C-3.24363281 12.45847656 -3.61617187 13.21773438 -4 14 C-4.66 14 -5.32 14 -6 14 C-6.33 14.99 -6.66 15.98 -7 17 C-7.66 16.67 -8.32 16.34 -9 16 C-8.43410156 15.01257813 -7.86820313 14.02515625 -7.28515625 13.0078125 C-6.54424241 11.71355794 -5.80335855 10.41928621 -5.0625 9.125 C-4.68931641 8.47402344 -4.31613281 7.82304687 -3.93164062 7.15234375 C-1.89866922 3.61253166 -1.89866922 3.61253166 0 0 Z " fill="#38222D" transform="translate(748,386)"/>
<path d="M0 0 C0.66 0.33 1.32 0.66 2 1 C-1.63 4.63 -5.26 8.26 -9 12 C-9.66 11.67 -10.32 11.34 -11 11 C-9.92173635 9.72486237 -8.83714481 8.45507431 -7.75 7.1875 C-7.14671875 6.47980469 -6.5434375 5.77210938 -5.921875 5.04296875 C-4.07629602 3.08110329 -2.20054668 1.54330375 0 0 Z " fill="#203248" transform="translate(430,209)"/>
<path d="M0 0 C0.66 0 1.32 0 2 0 C3.5078125 1.86328125 3.5078125 1.86328125 5.125 4.3125 C5.66382813 5.11300781 6.20265625 5.91351563 6.7578125 6.73828125 C8 9 8 9 8 12 C8.66 12 9.32 12 10 12 C9.67 13.32 9.34 14.64 9 16 C7.49734474 13.5224077 5.99777081 11.04304235 4.5 8.5625 C4.07074219 7.85544922 3.64148438 7.14839844 3.19921875 6.41992188 C0 1.11328125 0 1.11328125 0 0 Z " fill="#2F212C" transform="translate(737,272)"/>
<path d="M0 0 C-1.93108963 1.03290841 -3.870118 2.05098672 -5.8125 3.0625 C-6.89144531 3.63097656 -7.97039063 4.19945312 -9.08203125 4.78515625 C-12 6 -12 6 -15 5 C-12 3 -12 3 -9 3 C-9 2.34 -9 1.68 -9 1 C-5.47051709 -0.66670026 -3.71727674 -1.13583456 0 0 Z " fill="#DA7B60" transform="translate(699,440)"/>
<path d="M0 0 C0.66 0.33 1.32 0.66 2 1 C0.515625 2.984375 0.515625 2.984375 -2 5 C-4.89449949 5.2906124 -7.37949935 5.38186045 -10.25 5.25 C-11.36761719 5.22292969 -11.36761719 5.22292969 -12.5078125 5.1953125 C-14.33909701 5.14835649 -16.16971649 5.07661652 -18 5 C-18 4.67 -18 4.34 -18 4 C-17.01257813 3.95101562 -16.02515625 3.90203125 -15.0078125 3.8515625 C-13.72648438 3.77679687 -12.44515625 3.70203125 -11.125 3.625 C-9.21074219 3.52058594 -9.21074219 3.52058594 -7.2578125 3.4140625 C-3.91938301 3.32758894 -3.91938301 3.32758894 -2 1 C-1.34 0.67 -0.68 0.34 0 0 Z " fill="#80A9BD" transform="translate(748,804)"/>
<path d="M0 0 C1.74627478 2.61941217 2.38722388 4.03824877 3 7 C2.34 7 1.68 7 1 7 C1 10.96 1 14.92 1 19 C0.67 19 0.34 19 0 19 C0 12.73 0 6.46 0 0 Z " fill="#E4EDF3" transform="translate(425,540)"/>
<path d="M0 0 C0.66 0 1.32 0 2 0 C0.61811547 3.21043882 -0.92421903 5.04936365 -3.625 7.25 C-4.57246094 8.03117187 -4.57246094 8.03117187 -5.5390625 8.828125 C-6.02117188 9.21484375 -6.50328125 9.6015625 -7 10 C-7.33 9.34 -7.66 8.68 -8 8 C-7.34 8 -6.68 8 -6 8 C-6 7.34 -6 6.68 -6 6 C-5.34 6 -4.68 6 -4 6 C-3.34 4.68 -2.68 3.36 -2 2 C-1.34 2 -0.68 2 0 2 C0 1.34 0 0.68 0 0 Z " fill="#CC6C5A" transform="translate(727,415)"/>
<path d="M0 0 C0.33 0 0.66 0 1 0 C2.10228696 4.40914783 2.07654536 8.48382401 2 13 C1.67 13 1.34 13 1 13 C0.67 10.36 0.34 7.72 0 5 C-0.99 4.67 -1.98 4.34 -3 4 C-2.02727325 2.64664105 -1.0260734 1.31337396 0 0 Z " fill="#D6E2E6" transform="translate(502,339)"/>
<path d="M0 0 C0.66 0 1.32 0 2 0 C1.42415568 2.38564077 0.77772405 4.66682784 0 7 C-1.65 7.33 -3.3 7.66 -5 8 C-4.21718695 6.66144944 -3.42348123 5.32926356 -2.625 4 C-2.18414062 3.2575 -1.74328125 2.515 -1.2890625 1.75 C-0.86367188 1.1725 -0.43828125 0.595 0 0 Z " fill="#1D2F47" transform="translate(472,333)"/>
<path d="M0 0 C0 0.66 0 1.32 0 2 C-1.32 2 -2.64 2 -4 2 C-4 2.66 -4 3.32 -4 4 C-5.98 4.66 -7.96 5.32 -10 6 C-10.66 5.34 -11.32 4.68 -12 4 C-10.3767313 3.3291288 -8.75132422 2.66342971 -7.125 2 C-6.22007812 1.62875 -5.31515625 1.2575 -4.3828125 0.875 C-2 0 -2 0 0 0 Z " fill="#2C222E" transform="translate(694,443)"/>
<path d="M0 0 C2.88437779 1.29299694 4.87219421 2.65941363 7 5 C6.67 5.99 6.34 6.98 6 8 C4 6.6875 4 6.6875 2 5 C2 4.01 2 3.02 2 2 C1.34 2 0.68 2 0 2 C0 1.34 0 0.68 0 0 Z " fill="#E87761" transform="translate(722,257)"/>
<path d="M0 0 C0.33 0.99 0.66 1.98 1 3 C-0.21484375 4.82421875 -0.21484375 4.82421875 -1.9375 6.6875 C-2.50339844 7.31011719 -3.06929688 7.93273437 -3.65234375 8.57421875 C-4.09707031 9.04472656 -4.54179687 9.51523437 -5 10 C-5.66 9.67 -6.32 9.34 -7 9 C-4.69 6.03 -2.38 3.06 0 0 Z " fill="#213248" transform="translate(490,309)"/>
<path d="M0 0 C0.33 0.99 0.66 1.98 1 3 C-4.625 7 -4.625 7 -8 7 C-5.36 4.69 -2.72 2.38 0 0 Z " fill="#2B1E2D" transform="translate(724,421)"/>
<path d="M0 0 C0.66 0 1.32 0 2 0 C2 1.32 2 2.64 2 4 C0.02 4.66 -1.96 5.32 -4 6 C-2.7260411 3.96166576 -1.38938077 1.96147874 0 0 Z " fill="#122D46" transform="translate(453,267)"/>
</svg>
