<?xml version="1.0" encoding="UTF-8"?>
<svg version="1.1" xmlns="http://www.w3.org/2000/svg" width="1024" height="1024">
<path d="M0 0 C337.92 0 675.84 0 1024 0 C1024 337.92 1024 675.84 1024 1024 C686.08 1024 348.16 1024 0 1024 C0 686.08 0 348.16 0 0 Z " fill="#D4E1E3" transform="translate(0,0)"/>
<path d="M0 0 C37.22380389 -0.06625569 74.44755174 -0.1216021 111.67139782 -0.15319599 C116.07560972 -0.15694768 120.47982149 -0.16083069 124.8840332 -0.16479492 C125.76075604 -0.16558185 126.63747888 -0.16636878 127.54076908 -0.16717956 C141.69799451 -0.1801993 155.85518303 -0.20383403 170.01238664 -0.23145839 C184.5613954 -0.25960846 199.11038496 -0.27619646 213.65941983 -0.28226548 C222.62196181 -0.28636211 231.58439943 -0.29925513 240.54690925 -0.3237494 C246.71013734 -0.33972543 252.87331224 -0.34437383 259.03655948 -0.34050413 C262.58142385 -0.33860083 266.12610714 -0.34131631 269.67093849 -0.35761642 C308.73114063 -0.51056691 346.06774189 6.53597749 377 32 C377.5578418 32.45246094 378.11568359 32.90492188 378.69042969 33.37109375 C410.92706038 59.61558735 434.03288223 98.20421114 438.59375 139.890625 C440.89250032 165.63762474 439.35173131 198.75316828 424.375 220.90625 C422.50823983 223.74881663 421.26778631 226.75999619 419.9453125 229.8828125 C418.52399742 233.06608842 416.78320126 236.00676931 415 239 C414.34 239 413.68 239 413 239 C412.63068359 240.07701172 412.63068359 240.07701172 412.25390625 241.17578125 C409.89574408 246.48715586 405.75156762 250.61627846 402 255 C401.29488281 255.85335937 400.58976562 256.70671875 399.86328125 257.5859375 C394.04485838 264.40456985 387.41905787 269.99719197 380 275 C379.34 275 378.68 275 378 275 C379.28236631 278.84709892 381.58892695 280.11093304 384.75 282.375 C411.82813146 302.60384665 431.19239607 333.62672671 437 367 C437.20367188 368.134375 437.40734375 369.26875 437.6171875 370.4375 C440.45472833 389.09530275 440.30334982 408.60063817 436 427 C435.83371094 427.73089844 435.66742187 428.46179688 435.49609375 429.21484375 C428.56664306 458.83182928 412.79721138 484.18243482 392 506 C391.19949219 506.86496094 390.39898438 507.72992187 389.57421875 508.62109375 C370.92860438 528.18220474 344.66649064 540.65367959 318.8125 547.3125 C317.82652832 547.56757324 316.84055664 547.82264648 315.82470703 548.08544922 C304.74369659 550.79061174 293.72189296 551.14999941 282.35760498 551.12025452 C280.53525341 551.12153615 280.53525341 551.12153615 278.67608666 551.12284368 C275.33971222 551.12419573 272.00339771 551.12110988 268.66703057 551.11606562 C265.05575587 551.1117168 261.44448277 551.11321067 257.83320618 551.1139679 C251.58828043 551.11449034 245.34336519 551.11137285 239.09844208 551.10573006 C230.06951195 551.09757703 221.04058686 551.09499595 212.01165345 551.09374207 C197.3601424 551.09155751 182.70863693 551.08491362 168.05712891 551.07543945 C153.83089221 551.06624989 139.60465704 551.05917662 125.37841797 551.05493164 C124.50040696 551.05466892 123.62239594 551.05440619 122.71777853 551.05413551 C118.31272514 551.0528304 113.90767173 551.05156671 109.50261831 551.05032361 C73.00174057 551.03996956 36.50087319 551.02154128 0 551 C0 521.63 0 492.26 0 462 C8.45995605 461.98018066 16.91991211 461.96036133 25.63623047 461.93994141 C52.71836754 461.87510595 79.80047017 461.80057151 106.88256466 461.71994839 C111.09065486 461.70742982 115.29874532 461.694997 119.50683594 461.68261719 C120.76344541 461.6789182 120.76344541 461.6789182 122.04544093 461.67514448 C135.60221369 461.63544276 149.15899477 461.60268398 162.71579169 461.57250018 C176.63083761 461.54136387 190.54584833 461.50274515 204.46085465 461.45720994 C213.04411874 461.42935717 221.62735714 461.40731024 230.21065421 461.39273749 C236.10003112 461.38217887 241.98935822 461.36433898 247.87869756 461.34083296 C251.27431521 461.32749326 254.66980197 461.31838798 258.06545448 461.31578636 C261.7536023 461.31245481 265.44150954 461.2969526 269.12960815 461.2784729 C270.72595024 461.281375 270.72595024 461.281375 272.35454166 461.28433573 C291.61909032 461.14033562 309.78671479 454.06911737 323.75 440.75 C328.69669486 435.60571961 332.51640798 430.21112973 336 424 C336.38671875 423.35933594 336.7734375 422.71867187 337.171875 422.05859375 C345.20437516 407.75456461 346.09642487 390.6175473 341.9753418 375.01342773 C338.30743406 362.61313078 332.38354289 351.96686692 323 343 C322.38769531 342.36835937 321.77539062 341.73671875 321.14453125 341.0859375 C307.49975799 327.87756424 288.87545859 324.42900276 270.6875 324.25 C265.510625 324.1675 260.33375 324.085 255 324 C255 337.53 255 351.06 255 365 C224.64 365 194.28 365 163 365 C163 392.72 163 420.44 163 449 C109.21 449 55.42 449 0 449 C0 420.95 0 392.9 0 364 C53.79 364 107.58 364 163 364 C163 304.93 163 245.86 163 185 C193.36 185 223.72 185 255 185 C255 200.18 255 215.36 255 231 C281.64780671 230.31320086 304.18488173 228.3838398 324.09765625 208.953125 C338.11110765 194.15664838 344.62328071 175.82814567 344.27734375 155.625 C343.49277451 136.98269813 334.61742068 121.25032063 321.5 108.375 C307.32484289 96.03736326 289.73212461 91.85835962 271.41444397 91.84178162 C270.25281768 91.83684364 269.09119139 91.83190566 267.8943643 91.82681805 C264.68353243 91.81414703 261.47272385 91.80583682 258.26187456 91.79939139 C254.79433172 91.79135981 251.3268106 91.7776716 247.85928345 91.76467896 C241.85601039 91.7429552 235.8527351 91.72479579 229.84944344 91.70907402 C221.16974813 91.68633795 212.49007691 91.65820036 203.81040209 91.62875474 C189.72737181 91.58112458 175.64433166 91.53784804 161.5612793 91.49731445 C147.88288607 91.45793622 134.20450161 91.41650443 120.52612305 91.37231445 C119.68264236 91.36959018 118.83916168 91.36686591 117.97012097 91.36405908 C113.73852314 91.35037922 109.50692544 91.33665902 105.2753278 91.32291877 C70.18356906 91.2090259 35.09179272 91.10300367 0 91 C0 60.97 0 30.94 0 0 Z " fill="#021727" transform="translate(297,235)"/>
<path d="M0 0 C35.84826827 -0.04411969 71.69651087 -0.08103697 107.54479854 -0.10213066 C111.78035402 -0.10463197 116.01590945 -0.10722062 120.25146484 -0.10986328 C121.0946611 -0.1103879 121.93785735 -0.11091252 122.80660501 -0.11145304 C136.44611129 -0.12014741 150.08560065 -0.13591205 163.72509691 -0.15430559 C177.72826747 -0.17303159 191.73142919 -0.18412243 205.73461175 -0.18817699 C214.37009941 -0.19091645 223.00553923 -0.19955802 231.64101216 -0.21583293 C237.56869151 -0.22643315 243.49634626 -0.22959377 249.42403439 -0.22700275 C252.84015327 -0.22572618 256.25618878 -0.22763503 259.67229271 -0.23841095 C263.38598471 -0.24840588 267.0994744 -0.24595217 270.81317139 -0.24050903 C271.87935566 -0.24633472 272.94553993 -0.2521604 274.04403281 -0.25816262 C284.10492665 -0.21848379 293.86223383 0.873108 303.0625 5.125 C303.73732422 5.42994385 304.41214844 5.7348877 305.10742188 6.04907227 C319.20001369 12.65790784 329.26616973 22.64875848 337 36 C337.39058594 36.63292969 337.78117187 37.26585937 338.18359375 37.91796875 C346.04086153 51.76754969 347.31868046 69.76487329 343.25 84.9375 C342.53110938 87.30135215 341.78376829 89.65685938 341 92 C340.71125 92.91394531 340.4225 93.82789063 340.125 94.76953125 C333.98726465 112.16891494 318.97129258 125.88989959 302.75 133.75 C290.73051692 139.27418225 279.0638303 140.49401039 266 140 C267.48228902 137.03542196 269.7164164 136.57254389 272.6875 135.1875 C281.31542419 130.95531918 287.05607352 126.02803993 291.3125 117.3125 C293.23592634 108.04508219 292.4046045 100.94772143 287.76953125 92.6328125 C282.95553951 85.47027292 275.43502843 80.78973917 267 79 C265.44801394 78.90822837 263.89265936 78.86643931 262.33797073 78.8613348 C261.39993992 78.85586036 260.46190911 78.85038591 259.49545312 78.84474558 C258.46822129 78.84376747 257.44098946 78.84278936 256.38262939 78.84178162 C254.74204013 78.83437465 254.74204013 78.83437465 253.06830764 78.82681805 C249.39091759 78.8114182 245.71354503 78.80307566 242.03613281 78.79467773 C239.40503281 78.78510117 236.77393435 78.77509122 234.14283752 78.76467896 C228.47182188 78.74292254 222.80080388 78.72477499 217.12976837 78.70907402 C208.9303895 78.6863678 200.73103638 78.65822601 192.53167936 78.62875474 C179.228976 78.58108807 165.9262621 78.53782137 152.62353516 78.49731445 C139.70067526 78.45795483 126.77782472 78.41652748 113.85498047 78.37231445 C113.05850354 78.36959018 112.26202662 78.36686591 111.44141403 78.36405908 C107.44574942 78.35037953 103.45008496 78.33665927 99.45442057 78.32291877 C66.30296541 78.20896851 33.15149155 78.10296522 0 78 C0 52.26 0 26.52 0 0 Z " fill="#FD6743" transform="translate(297,326)"/>
<path d="M0 0 C5.176875 -0.0825 10.35375 -0.165 15.6875 -0.25 C18.09421997 -0.30462402 18.09421997 -0.30462402 20.54956055 -0.36035156 C29.732368 -0.43051412 37.34792086 0.58980412 46 4 C46.71164307 4.27730957 47.42328613 4.55461914 48.15649414 4.84033203 C56.76461573 8.45134168 63.52394553 13.35411893 70 20 C71.04414062 20.99580078 71.04414062 20.99580078 72.109375 22.01171875 C84.14653379 34.25882798 89.91535308 52.06189944 90.5625 68.9375 C89.98293646 89.28217877 79.97435339 106.87053224 65.5546875 120.8046875 C50.88257066 133.41283683 33.43344023 138.17168031 14.4903717 138.12025452 C13.33691252 138.12110894 12.18345333 138.12196337 10.99504083 138.12284368 C7.80699879 138.12420254 4.61899774 138.12109043 1.43096054 138.11606562 C-2.01202968 138.11173712 -5.45501808 138.11320925 -8.89801025 138.1139679 C-14.85873298 138.11449161 -20.81944475 138.11136073 -26.78016472 138.10573006 C-35.39830761 138.09759441 -44.01644521 138.09499772 -52.63459153 138.09374207 C-66.61780686 138.09155479 -80.60101635 138.0849035 -94.58422852 138.07543945 C-108.16560843 138.06625694 -121.74698675 138.05918021 -135.32836914 138.05493164 C-136.16587583 138.05466892 -137.00338253 138.05440619 -137.86626821 138.05413551 C-142.06789778 138.05283045 -146.26952736 138.05156675 -150.47115695 138.05032361 C-185.31410884 138.0399611 -220.15705379 138.02227714 -255 138 C-255 133.71 -255 129.42 -255 125 C-201.21 125 -147.42 125 -92 125 C-92 97.28 -92 69.56 -92 41 C-61.64 41 -31.28 41 0 41 C0 27.47 0 13.94 0 0 Z " fill="#F9F5ED" transform="translate(552,559)"/>
<path d="M0 0 C2.27179152 -0.00959473 4.54263444 -0.04054734 6.81420898 -0.07226562 C14.75138884 -0.1317388 21.9359195 0.17945869 29.37475586 3.24023438 C30.38904663 3.63782959 30.38904663 3.63782959 31.42382812 4.04345703 C45.86580814 10.03783605 57.40148771 19.70983994 65.37475586 33.24023438 C65.83237305 33.99304688 66.28999023 34.74585938 66.76147461 35.52148438 C74.89827373 50.18238369 76.95228955 68.03981107 72.62475586 84.17773438 C71.90586524 86.54158652 71.15852415 88.89709376 70.37475586 91.24023438 C70.08600586 92.15417969 69.79725586 93.068125 69.49975586 94.00976562 C63.36202051 111.40914932 48.34604844 125.13013396 32.12475586 132.99023438 C20.10527278 138.51441663 8.43858616 139.73424476 -4.62524414 139.24023438 C-3.14295512 136.27565633 -0.90882774 135.81277827 2.06225586 134.42773438 C10.69018005 130.19555355 16.43082938 125.2682743 20.68725586 116.55273438 C22.6106822 107.28531657 21.77936036 100.18795581 17.14428711 91.87304688 C14.66102657 88.17830603 12.10250246 85.64523218 8.37475586 83.24023438 C7.8269043 82.85351562 7.27905273 82.46679688 6.71459961 82.06835938 C2.12222833 79.28265723 -2.65264082 78.71638592 -7.91040039 78.13085938 C-9.02421082 77.9996167 -9.02421082 77.9996167 -10.16052246 77.86572266 C-11.98148147 77.65192288 -13.80328681 77.44535275 -15.62524414 77.24023438 C-15.51790683 67.34826449 -15.40530738 57.45637005 -15.28590488 47.564538 C-15.23063449 42.9718426 -15.17720805 38.37914087 -15.12792969 33.78637695 C-15.08034667 29.35784106 -15.02800633 24.92938508 -14.97230339 20.50094414 C-14.95185227 18.80760107 -14.93314384 17.11423606 -14.91617012 15.42085457 C-14.89218686 13.05726274 -14.86212449 10.69382333 -14.83056641 8.33032227 C-14.82481094 7.62326141 -14.81905548 6.91620056 -14.81312561 6.18771362 C-14.67632768 -2.76811777 -7.27533834 0.01857336 0 0 Z " fill="#FDA433" transform="translate(567.625244140625,326.759765625)"/>
<path d="M0 0 C4.46161319 -0.10032167 8.92259567 -0.17213763 13.38500977 -0.21972656 C14.89684512 -0.23960437 16.4086061 -0.26671673 17.92016602 -0.30175781 C28.00582437 -0.52937971 36.471376 0.2443161 46 4 C46.71164307 4.27730957 47.42328613 4.55461914 48.15649414 4.84033203 C56.76461573 8.45134168 63.52394553 13.35411893 70 20 C70.69609375 20.66386719 71.3921875 21.32773437 72.109375 22.01171875 C84.14653379 34.25882798 89.91535308 52.06189944 90.5625 68.9375 C89.98293646 89.28217877 79.97435339 106.87053224 65.5546875 120.8046875 C52.24948442 132.23821064 35.32190094 138.2248904 17.87890625 138.09765625 C17.13414536 138.0962413 16.38938446 138.09482635 15.62205505 138.09336853 C13.26882727 138.08781989 10.9156985 138.07527733 8.5625 138.0625 C6.95638159 138.05747835 5.35026168 138.05291661 3.74414062 138.04882812 C-0.17061043 138.03786735 -4.08528849 138.02063884 -8 138 C-5.14018713 136.5280706 -2.48600067 135.51338454 0.625 134.6875 C16.43771636 129.98767361 28.86060957 119.52162496 37.52734375 105.53515625 C40.99255641 99.03656594 43.04412981 92.07564804 45 85 C45.17797119 84.38817871 45.35594238 83.77635742 45.53930664 83.14599609 C49.76790159 63.44840755 45.05762298 42.30099977 34.5625 25.5625 C34.20341553 24.98322754 33.84433105 24.40395508 33.47436523 23.80712891 C30.77265322 19.66815667 27.83839862 17.01102211 24 14 C23.21625 13.175 22.4325 12.35 21.625 11.5 C15.21637521 5.39654782 8.5593192 2.93528725 0 1 C0 0.67 0 0.34 0 0 Z " fill="#FCA334" transform="translate(552,559)"/>
<path d="M0 0 C10.22391521 -0.74506265 17.57711907 -0.50795907 26 6 C32.03529667 11.38100282 36.32736384 17.81307371 37.37890625 25.921875 C37.7017477 34.12829646 35.69226636 39.8120301 31.3125 46.625 C24.99626854 53.11194042 17.31523472 59.50035108 7.98828125 60.23828125 C5.31149197 60.24856341 2.67017632 60.17967542 0 60 C0.875 52.125 0.875 52.125 2 51 C2.10004644 49.10629077 2.13081093 47.20884911 2.1328125 45.3125 C2.13474609 43.55099609 2.13474609 43.55099609 2.13671875 41.75390625 C2.13285156 40.51511719 2.12898437 39.27632813 2.125 38 C2.12886719 36.79214844 2.13273438 35.58429688 2.13671875 34.33984375 C2.59002045 23.39315931 2.59002045 23.39315931 0 13 C-0.07092842 10.7927077 -0.08415025 8.58332548 -0.0625 6.375 C-0.05347656 5.18648438 -0.04445313 3.99796875 -0.03515625 2.7734375 C-0.02355469 1.85820312 -0.01195312 0.94296875 0 0 Z " fill="#F8F4EC" transform="translate(553,405)"/>
<path d="M0 0 C0.33 0 0.66 0 1 0 C1 29.7 1 59.4 1 90 C97.36 90 193.72 90 293 90 C293 90.66 293 91.32 293 92 C294.65 92 296.3 92 298 92 C298 92.66 298 93.32 298 94 C299.65 94 301.3 94 303 94 C303.33 94.99 303.66 95.98 304 97 C302.7625 96.54625 301.525 96.0925 300.25 95.625 C290.60711703 92.43558471 280.90904749 91.70320678 270.81317139 91.7215271 C269.64727297 91.7157347 268.48137455 91.7099423 267.28014588 91.70397437 C264.08057836 91.69002316 260.88113945 91.68475278 257.68154645 91.68332577 C254.21748743 91.67960297 250.7534752 91.66443349 247.28944397 91.65071106 C241.29989878 91.62852413 235.31037043 91.61345957 229.32079315 91.60334396 C220.66106158 91.58870835 212.00138872 91.5631581 203.34169176 91.53501268 C189.28917079 91.48963302 175.23664132 91.45298189 161.18408203 91.421875 C147.53986115 91.3916532 133.895661 91.35728634 120.25146484 91.31738281 C119.40929778 91.31492126 118.56713071 91.31245972 117.69944343 91.30992357 C113.47419868 91.29754827 109.24895417 91.28509187 105.02370977 91.27259517 C70.01583108 91.16915963 35.0079379 91.08153096 0 91 C0 60.97 0 30.94 0 0 Z " fill="#4A3236" transform="translate(297,235)"/>
<path d="M0 0 C1.16180608 3.92759816 0.75984959 6.97279717 0 11 C-0.33 11.33 -0.66 11.66 -1 12 C-1.10668305 13.68618487 -1.18497589 15.37419536 -1.25 17.0625 C-1.65802403 22.07536668 -2.79778965 25.06174172 -5.6875 29.1171875 C-6.97698865 30.96698968 -7.88311007 32.76286328 -8.8125 34.8125 C-15.18548983 47.78518681 -27.56465984 62.98167492 -39 72 C-40.32720895 72.35693877 -41.66055483 72.69214365 -43 73 C-45.56249975 75.31232422 -45.56249975 75.31232422 -48 78 C-49.33333333 79.33333333 -50.66666667 80.66666667 -52 82 C-52.99 81.67 -53.98 81.34 -55 81 C-55 80.01 -55 79.02 -55 78 C-52.91015625 76.23828125 -52.91015625 76.23828125 -50.0625 74.3125 C-38.02736264 65.84161486 -29.54254928 56.07594659 -21.4453125 43.8359375 C-20.72988281 42.92714844 -20.72988281 42.92714844 -20 42 C-19.34 42 -18.68 42 -18 42 C-17.7525 41.154375 -17.505 40.30875 -17.25 39.4375 C-16.15303688 36.42085143 -14.83620362 33.86517916 -13.20703125 31.11328125 C-9.16709791 24.04012936 -5.59096396 16.72662466 -3 9 C-2.7215625 8.17886719 -2.443125 7.35773438 -2.15625 6.51171875 C-1.42808916 4.34409182 -0.70950177 2.17379266 0 0 Z " fill="#9DDEEA" transform="translate(730,432)"/>
<path d="M0 0 C0.99 0 1.98 0 3 0 C3 0.66 3 1.32 3 2 C3.99 2.33 4.98 2.66 6 3 C6.82430786 9.38838593 7.19678953 15.5621711 7 22 C6.98324219 23.01964844 6.96648438 24.03929687 6.94921875 25.08984375 C6.56344308 34.00677272 6.56344308 34.00677272 3.5 37.75 C1 40 1 40 0 40 C0 26.8 0 13.6 0 0 Z " fill="#E2F8F7" transform="translate(552,560)"/>
<path d="M0 0 C1.2878472 2.92692546 0.94932225 4.15501429 -0.0625 7.25 C-5.7326994 19.08997583 -17.0630192 30.13994533 -28.21484375 36.859375 C-30.20218232 38.02185049 -30.20218232 38.02185049 -32.125 40.3125 C-34.83920265 42.75528238 -37.44787854 42.72675989 -41 43 C-38.36159116 40.26608315 -35.65547169 37.9107824 -32.625 35.625 C-19.97397962 25.56380559 -8.96394978 13.44592466 0 0 Z " fill="#B5E5EC" transform="translate(709,716)"/>
<path d="M0 0 C0.66 0.33 1.32 0.66 2 1 C2 2.65 2 4.3 2 6 C1.34 6 0.68 6 0 6 C0.2475 6.99 0.495 7.98 0.75 9 C1.32228146 12.95109388 0.01361363 15.05923527 -1.95703125 18.49609375 C-3.34400475 21.82586907 -3.61547677 24.98184791 -4 28.5625 C-4.65879972 34.53917857 -5.6789455 38.07198365 -9 43 C-9.34820041 44.66362417 -9.68404492 46.32995171 -10 48 C-10.95298777 49.36733028 -11.95374591 50.70264493 -13 52 C-13.69580267 53.31836295 -14.37224433 54.64791086 -15 56 C-15.66 56 -16.32 56 -17 56 C-17 56.66 -17 57.32 -17 58 C-18.375 59.625 -18.375 59.625 -20 61 C-20.66 61 -21.32 61 -22 61 C-22 61.99 -22 62.98 -22 64 C-22.66 64 -23.32 64 -24 64 C-22.71786254 60.65869444 -21.28137733 57.51919505 -19.57421875 54.375 C-10.00238961 36.56957143 -4.44754868 19.7041838 0 0 Z " fill="#8BB9C2" transform="translate(734,652)"/>
<path d="M0 0 C0.33 0.66 0.66 1.32 1 2 C-0.32005176 4.64010353 -1.78594142 5.12587182 -4.375 6.5 C-7.02330166 7.91472792 -9.49604549 9.330697 -12 11 C-5.4 11.33 1.2 11.66 8 12 C8 11.34 8 10.68 8 10 C10.05078125 9.77213542 12.1015625 9.54427083 14.15234375 9.31640625 C16.01140229 9.18113386 16.01140229 9.18113386 17 8 C18.99958364 7.95919217 21.00045254 7.95745644 23 8 C23 7.34 23 6.68 23 6 C24.32 6 25.64 6 27 6 C27 5.34 27 4.68 27 4 C28.65 4 30.3 4 32 4 C29.89820777 6.32982452 28.18820378 7.531435 25.234375 8.5703125 C24.50863281 8.82683594 23.78289063 9.08335937 23.03515625 9.34765625 C22.28105469 9.60417969 21.52695312 9.86070312 20.75 10.125 C20.01136719 10.38925781 19.27273438 10.65351562 18.51171875 10.92578125 C11.33384132 13.41968223 4.47455457 14.15306106 -3.12109375 14.09765625 C-3.86585464 14.0962413 -4.61061554 14.09482635 -5.37794495 14.09336853 C-7.73117273 14.08781989 -10.0843015 14.07527733 -12.4375 14.0625 C-14.04361841 14.05747835 -15.64973832 14.05291661 -17.25585938 14.04882812 C-21.17061043 14.03786735 -25.08528849 14.02063884 -29 14 C-26.14018713 12.5280706 -23.48600067 11.51338454 -20.375 10.6875 C-12.85981334 8.48955767 -5.86183794 5.27565415 0 0 Z " fill="#DB9C53" transform="translate(573,683)"/>
<path d="M0 0 C0.99 0.33 1.98 0.66 3 1 C2.50371094 1.556875 2.00742187 2.11375 1.49609375 2.6875 C-1.89983107 6.50227703 -5.28458611 10.32397879 -8.625 14.1875 C-17.05690664 23.79103831 -17.05690664 23.79103831 -22 25 C-24.56249975 27.31232422 -24.56249975 27.31232422 -27 30 C-29 32 -29 32 -31 34 C-31.99 33.67 -32.98 33.34 -34 33 C-34 32.01 -34 31.02 -34 30 C-31.91015625 28.23828125 -31.91015625 28.23828125 -29.0625 26.3125 C-22.50067085 21.70993 -16.16626236 16.90323382 -11.1875 10.5625 C-8.8749563 7.85352024 -8.27017239 7.67658739 -5 7 C-3.71563266 5.0162233 -3.71563266 5.0162233 -3 3 C-2.34 3 -1.68 3 -1 3 C-0.67 2.01 -0.34 1.02 0 0 Z " fill="#B2E3ED" transform="translate(709,480)"/>
<path d="M0 0 C4.66989139 4.66989139 3.12992425 15.09569431 3.13671875 21.33984375 C3.13285156 22.54769531 3.12898437 23.75554687 3.125 25 C3.12886719 26.23878906 3.13273438 27.47757812 3.13671875 28.75390625 C3.13542969 29.92824219 3.13414062 31.10257812 3.1328125 32.3125 C3.13168457 33.38113281 3.13055664 34.44976562 3.12939453 35.55078125 C3 38 3 38 2 39 C1.63239269 41.32817964 1.29758419 43.6618385 1 46 C0.67 46 0.34 46 0 46 C0 30.82 0 15.64 0 0 Z " fill="#D9FBF1" transform="translate(553,418)"/>
<path d="M0 0 C1 2 1 2 0.9375 3.8125 C-0.54399115 7.26931268 -2.98371815 8.78395619 -6 11 C-6.66 11 -7.32 11 -8 11 C-8 12.32 -8 13.64 -8 15 C-9.828125 16.5625 -9.828125 16.5625 -12.25 18 C-14.95840884 19.66638861 -16.96222028 20.95888677 -19.125 23.3125 C-21.83920265 25.75528238 -24.44787854 25.72675989 -28 26 C-25.36159116 23.26608315 -22.65547169 20.9107824 -19.625 18.625 C-12.51021625 13.02264034 -6.30980099 6.47345577 0 0 Z " fill="#92C7CE" transform="translate(696,733)"/>
<path d="M0 0 C30.03 0 60.06 0 91 0 C91 0.33 91 0.66 91 1 C61.96 1 32.92 1 3 1 C2.34 2.32 1.68 3.64 1 5 C0.67 5 0.34 5 0 5 C0 3.35 0 1.7 0 0 Z " fill="#E8EDEB" transform="translate(461,600)"/>
<path d="M0 0 C4.21866093 4.21866093 3.35021688 11.72986913 3.3894043 17.39477539 C3.1684074 28.8284569 -0.64193183 40.50348116 -7 50 C-7.33 48.68 -7.66 47.36 -8 46 C-7.34 46 -6.68 46 -6 46 C-5.34 43.03 -4.68 40.06 -4 37 C-3.34 37 -2.68 37 -2 37 C-2.020625 36.030625 -2.04125 35.06125 -2.0625 34.0625 C-2 31 -2 31 -1 30 C0.69286439 20.17720662 0.09259096 9.92780858 0 0 Z " fill="#D89A4B" transform="translate(639,612)"/>
<path d="M0 0 C0.99 0 1.98 0 3 0 C3.05859908 4.31244188 3.09379686 8.62477974 3.125 12.9375 C3.14175781 14.14986328 3.15851562 15.36222656 3.17578125 16.61132812 C3.21267208 23.4176856 2.80060558 29.42849852 1 36 C0.67 36 0.34 36 0 36 C0 24.12 0 12.24 0 0 Z " fill="#C4F7F4" transform="translate(552,560)"/>
<path d="M0 0 C4.62644904 -0.04950925 9.25274318 -0.08577116 13.87939453 -0.10986328 C15.45266405 -0.11990887 17.02591496 -0.13354781 18.59912109 -0.15087891 C20.86300252 -0.17519096 23.12663666 -0.18649747 25.390625 -0.1953125 C26.09181458 -0.20563507 26.79300415 -0.21595764 27.51544189 -0.22659302 C31.50569803 -0.22750579 33.30811458 0.15405729 37 2 C26.605 2.495 26.605 2.495 16 3 C16.66 4.32 17.32 5.64 18 7 C17.31550781 6.71382812 16.63101563 6.42765625 15.92578125 6.1328125 C12.71638749 4.89019008 9.48089886 3.87299966 6.1875 2.875 C5.02605469 2.52179687 3.86460937 2.16859375 2.66796875 1.8046875 C1.78753906 1.53914062 0.90710938 1.27359375 0 1 C0 0.67 0 0.34 0 0 Z " fill="#D0A463" transform="translate(552,559)"/>
<path d="M0 0 C5.71686359 8.57529539 5.38420559 22.29762 3.59863281 32.23339844 C2.6198198 36.55825202 1.37477325 40.78361954 0 45 C-0.33 45 -0.66 45 -1 45 C-1 42.36 -1 39.72 -1 37 C-0.34 37 0.32 37 1 37 C1.02944154 32.89584883 1.04694527 28.79172544 1.0625 24.6875 C1.07087891 23.53958984 1.07925781 22.39167969 1.08789062 21.20898438 C1.10808977 14.07868651 0.79718119 7.08655428 0 0 Z " fill="#CE9543" transform="translate(638,373)"/>
<path d="M0 0 C1.37149501 2.74299002 0.83290956 4.08481654 0 7 C-0.95298777 8.36733028 -1.95374591 9.70264493 -3 11 C-3.69580267 12.31836295 -4.37224433 13.64791086 -5 15 C-5.66 15 -6.32 15 -7 15 C-7 15.66 -7 16.32 -7 17 C-8.375 18.625 -8.375 18.625 -10 20 C-10.66 20 -11.32 20 -12 20 C-12 20.99 -12 21.98 -12 23 C-12.66 23 -13.32 23 -14 23 C-12.34229667 18.50675151 -10.15017838 14.38813854 -7.875 10.1875 C-7.50246094 9.49462891 -7.12992188 8.80175781 -6.74609375 8.08789062 C-5.83309623 6.39065164 -4.91687284 4.69514862 -4 3 C-3.01 3 -2.02 3 -1 3 C-0.67 2.01 -0.34 1.02 0 0 Z " fill="#95CDD3" transform="translate(724,693)"/>
<path d="M0 0 C12.54 0 25.08 0 38 0 C38 0.66 38 1.32 38 2 C39.65 2 41.3 2 43 2 C43 2.66 43 3.32 43 4 C44.65 4 46.3 4 48 4 C48.495 5.485 48.495 5.485 49 7 C47.7625 6.54625 46.525 6.0925 45.25 5.625 C34.80825916 2.17946817 24.16934821 1.64855361 13.25 1.375 C11.96867188 1.33632813 10.68734375 1.29765625 9.3671875 1.2578125 C6.2449253 1.16461064 3.12265307 1.0788031 0 1 C0 0.67 0 0.34 0 0 Z " fill="#2A2015" transform="translate(552,325)"/>
<path d="M0 0 C1.16180608 3.92759816 0.75984959 6.97279717 0 11 C-0.33 11.33 -0.66 11.66 -1 12 C-1.10632188 13.70705679 -1.1848019 15.41587846 -1.25 17.125 C-1.69299506 22.88393573 -3.25556051 25.6794929 -7 30 C-8.30426066 26.08721801 -7.39720611 24.87919957 -6 21 C-5.48599049 19.27679855 -4.98448136 17.54984301 -4.4921875 15.8203125 C-4.22792969 14.8921875 -3.96367188 13.9640625 -3.69140625 13.0078125 C-3.42199219 12.05648438 -3.15257812 11.10515625 -2.875 10.125 C-2.59785156 9.15046875 -2.32070313 8.1759375 -2.03515625 7.171875 C-1.3555653 4.78158958 -0.67721549 2.39095931 0 0 Z " fill="#B4E5EC" transform="translate(730,432)"/>
<path d="M0 0 C0 0.66 0 1.32 0 2 C-13.97342343 8.45814343 -26.77070632 8.71602466 -42 8 C-42 7.67 -42 7.34 -42 7 C-40.29457031 6.94392578 -40.29457031 6.94392578 -38.5546875 6.88671875 C-25.59187018 6.37074364 -12.05130917 0 0 0 Z " fill="#1D1A10" transform="translate(602,459)"/>
<path d="M0 0 C4.63162425 6.175499 4.71533042 11.47509555 4 19 C2.97470852 22.19676034 1.65117213 25.08096355 0 28 C-0.33 26.68 -0.66 25.36 -1 24 C-0.34 24 0.32 24 1 24 C0.67 16.08 0.34 8.16 0 0 Z " fill="#FDE5BE" transform="translate(586,421)"/>
<path d="M0 0 C0.66 0.33 1.32 0.66 2 1 C2.08783475 4.9998593 2.14067102 8.99946704 2.1875 13 C2.22520508 14.68802734 2.22520508 14.68802734 2.26367188 16.41015625 C2.38629855 30.3895968 2.38629855 30.3895968 -2.60473633 35.7109375 C-3.29539185 36.34902344 -3.29539185 36.34902344 -4 37 C-3.71125 36.00484375 -3.4225 35.0096875 -3.125 33.984375 C-0.00675627 22.51051651 0.44100343 11.84584213 0 0 Z " fill="#241F10" transform="translate(641,616)"/>
<path d="M0 0 C3 3 3 3 3.34057617 5.54370117 C3.32486572 6.53345947 3.30915527 7.52321777 3.29296875 8.54296875 C3.28330078 9.61611328 3.27363281 10.68925781 3.26367188 11.79492188 C3.23853516 12.91447266 3.21339844 14.03402344 3.1875 15.1875 C3.16719727 16.88422852 3.16719727 16.88422852 3.14648438 18.61523438 C3.11109958 21.41063317 3.06172948 24.20507892 3 27 C2.34 27.33 1.68 27.66 1 28 C0.67 18.76 0.34 9.52 0 0 Z " fill="#F3B159" transform="translate(598,612)"/>
<path d="M0 0 C1.65 0 3.3 0 5 0 C2.88093245 2.35347041 1.1420304 3.54964377 -1.8359375 4.60546875 C-2.57070313 4.86650391 -3.30546875 5.12753906 -4.0625 5.39648438 C-5.2071875 5.78803711 -5.2071875 5.78803711 -6.375 6.1875 C-7.50808594 6.59645508 -7.50808594 6.59645508 -8.6640625 7.01367188 C-12.55102545 8.36935213 -15.82231785 9.37449342 -20 9 C-19.67 8.01 -19.34 7.02 -19 6 C-16.94921875 5.77213542 -14.8984375 5.54427083 -12.84765625 5.31640625 C-10.98859771 5.18113386 -10.98859771 5.18113386 -10 4 C-8.00041636 3.95919217 -5.99954746 3.95745644 -4 4 C-4 3.34 -4 2.68 -4 2 C-2.68 2 -1.36 2 0 2 C0 1.34 0 0.68 0 0 Z " fill="#E3A14E" transform="translate(600,687)"/>
<path d="M0 0 C-0.95712891 0.19916016 -0.95712891 0.19916016 -1.93359375 0.40234375 C-2.75988281 0.57894531 -3.58617187 0.75554688 -4.4375 0.9375 C-5.26121094 1.11152344 -6.08492187 1.28554688 -6.93359375 1.46484375 C-8.97661204 1.80752994 -8.97661204 1.80752994 -10 3 C-12.147449 3.01681089 -14.29551952 2.96251223 -16.44140625 2.87890625 C-17.74658203 2.83056641 -19.05175781 2.78222656 -20.39648438 2.73242188 C-21.78516075 2.67589169 -23.17383257 2.61924959 -24.5625 2.5625 C-25.95506021 2.50929453 -27.34763826 2.45655404 -28.74023438 2.40429688 C-32.16035981 2.27411909 -35.58022924 2.1391382 -39 2 C-39 1.67 -39 1.34 -39 1 C-38.18845459 0.97494385 -37.37690918 0.9498877 -36.54077148 0.92407227 C-32.83954284 0.80754183 -29.13853319 0.685075 -25.4375 0.5625 C-24.16068359 0.52318359 -22.88386719 0.48386719 -21.56835938 0.44335938 C-19.70727539 0.38051758 -19.70727539 0.38051758 -17.80859375 0.31640625 C-16.67220459 0.27974854 -15.53581543 0.24309082 -14.36499023 0.20532227 C-10.9217968 0.04192859 -10.9217968 0.04192859 -7.22680664 -0.54711914 C-4.32142721 -0.95488784 -2.711336 -0.97608096 0 0 Z " fill="#141105" transform="translate(589,696)"/>
<path d="M0 0 C0.66 0.33 1.32 0.66 2 1 C-1.24560836 5.96387161 -3.87026699 8.85220929 -9 12 C-9.33 12.66 -9.66 13.32 -10 14 C-10.99 13.67 -11.98 13.34 -13 13 C-13 12.01 -13 11.02 -13 10 C-10.6640625 8.02734375 -10.6640625 8.02734375 -7.625 5.9375 C-3.62244372 3.19597072 -3.62244372 3.19597072 0 0 Z " fill="#A1D1D9" transform="translate(688,500)"/>
<path d="M0 0 C0.75 1.625 0.75 1.625 1 4 C-2.136 9.712 -2.136 9.712 -6 11 C-6 11.66 -6 12.32 -6 13 C-6.99 13.495 -6.99 13.495 -8 14 C-8.33 14.99 -8.66 15.98 -9 17 C-9.99 17 -10.98 17 -12 17 C-10.45977929 13.54252539 -8.3954266 10.85692617 -6 7.9375 C-3.86950813 5.33313035 -1.86787063 2.80180594 0 0 Z " fill="#7FC3C8" transform="translate(709,716)"/>
<path d="M0 0 C0.66 0.33 1.32 0.66 2 1 C1.67 1.66 1.34 2.32 1 3 C4.96 3 8.92 3 13 3 C13 3.33 13 3.66 13 4 C8.34462644 4.92092281 3.85314567 5.12205997 -0.875 5.0625 C-1.90753906 5.05573242 -1.90753906 5.05573242 -2.9609375 5.04882812 C-4.64066335 5.03716336 -6.32034375 5.01923271 -8 5 C-6.35197949 1.70395897 -3.32254422 1.22409524 0 0 Z " fill="#C2955B" transform="translate(571,461)"/>
<path d="M0 0 C0.77734375 1.609375 0.77734375 1.609375 1 4 C-0.40367622 6.26229236 -1.77300018 8.20063057 -3.4375 10.25 C-4.0881543 11.08144531 -4.0881543 11.08144531 -4.75195312 11.9296875 C-5.82333224 13.29540154 -6.91021796 14.64892519 -8 16 C-9.2077558 12.37673261 -8.54311128 11.35853631 -7 8 C-6.34 8 -5.68 8 -5 8 C-5 7.01 -5 6.02 -5 5 C-4.34 5 -3.68 5 -3 5 C-2.67 4.01 -2.34 3.02 -2 2 C-1.34 2 -0.68 2 0 2 C0 1.34 0 0.68 0 0 Z " fill="#B1E3EB" transform="translate(717,708)"/>
<path d="M0 0 C0.66 0.33 1.32 0.66 2 1 C0.09797311 3.03660426 -1.81938491 5.05331336 -3.75 7.0625 C-4.55824219 7.93358398 -4.55824219 7.93358398 -5.3828125 8.82226562 C-6.984375 10.47265625 -6.984375 10.47265625 -10 13 C-12.18847656 12.65795898 -12.18847656 12.65795898 -14 12 C-12.41856529 10.56041153 -10.83477221 9.12341355 -9.25 7.6875 C-8.36828125 6.88699219 -7.4865625 6.08648437 -6.578125 5.26171875 C-4.44550672 3.39083089 -2.29812057 1.65915714 0 0 Z " fill="#B8E0EA" transform="translate(701,491)"/>
<path d="M0 0 C0.66 0.33 1.32 0.66 2 1 C2 2.65 2 4.3 2 6 C1.34 6 0.68 6 0 6 C0.226875 7.010625 0.45375 8.02125 0.6875 9.0625 C1.06701625 13.8444048 0.14029854 15.80501486 -2 20 C-2.33 20 -2.66 20 -3 20 C-3.48452463 13.05514697 -1.69287491 6.7009632 0 0 Z " fill="#9FBDC7" transform="translate(734,652)"/>
<path d="M0 0 C4.55315948 0.61811534 8.28459767 2.46765893 12.3125 4.5625 C13.28026367 5.0565332 13.28026367 5.0565332 14.26757812 5.56054688 C15.84785228 6.36824255 17.42432105 7.18337613 19 8 C19 8.99 19 9.98 19 11 C18.67 10.34 18.34 9.68 18 9 C16.00458132 8.31974363 14.00382009 7.65509503 12 7 C10.32580562 6.0126546 8.65948148 5.01187895 7 4 C4.68901257 2.93636562 2.35327502 1.9689956 0 1 C0 0.67 0 0.34 0 0 Z " fill="#D7994E" transform="translate(594,330)"/>
<path d="M0 0 C4.28853112 0.57128243 7.13991377 2.09094395 10.75 4.4375 C11.71421875 5.05496094 12.6784375 5.67242188 13.671875 6.30859375 C16 8 16 8 17 10 C16.01 10 15.02 10 14 10 C14 9.34 14 8.68 14 8 C13.01 8 12.02 8 11 8 C11 7.34 11 6.68 11 6 C9.9275 5.71125 8.855 5.4225 7.75 5.125 C4.90599636 4.27179891 2.56491017 3.4363497 0 2 C0 1.34 0 0.68 0 0 Z " fill="#DDA152" transform="translate(600,565)"/>
<path d="M0 0 C0.33 1.32 0.66 2.64 1 4 C0.01 5.485 0.01 5.485 -1 7 C-1.66 7 -2.32 7 -3 7 C-3.66 8.65 -4.32 10.3 -5 12 C-5.99 11.67 -6.98 11.34 -8 11 C-5.36 7.37 -2.72 3.74 0 0 Z " fill="#74BDC9" transform="translate(709,476)"/>
<path d="M0 0 C1.19594292 3.99221233 0.68790338 6.14193513 -1 10 C-3.125 12.375 -3.125 12.375 -5 14 C-5.33 13.34 -5.66 12.68 -6 12 C-4.78515625 9.1796875 -4.78515625 9.1796875 -3.0625 5.875 C-2.49660156 4.77929688 -1.93070313 3.68359375 -1.34765625 2.5546875 C-0.90292969 1.71164062 -0.45820312 0.86859375 0 0 Z " fill="#6CB3BF" transform="translate(724,449)"/>
<path d="M0 0 C0.33 0.66 0.66 1.32 1 2 C-0.04393977 3.65766805 -1.11092879 5.30083631 -2.1875 6.9375 C-2.77917969 7.85402344 -3.37085938 8.77054687 -3.98046875 9.71484375 C-6.3071956 12.34760044 -7.56140181 12.72087372 -11 13 C-8.21937032 9.39548004 -5.21574914 6.21574914 -2 3 C-1.34 2.01 -0.68 1.02 0 0 Z " fill="#F1AB55" transform="translate(587,446)"/>
<path d="M0 0 C0.33 0 0.66 0 1 0 C1.08139142 2.39652528 1.14067009 4.79025436 1.1875 7.1875 C1.21263672 7.86103516 1.23777344 8.53457031 1.26367188 9.22851562 C1.32923478 13.70864748 0.66743649 16.39440999 -2 20 C-3.31052767 15.69577494 -2.45785552 12.0629466 -1.5625 7.75 C-1.41490234 7.00492187 -1.26730469 6.25984375 -1.11523438 5.4921875 C-0.7511306 3.65992335 -0.37658591 1.82973947 0 0 Z " fill="#93AEB7" transform="translate(734,412)"/>
<path d="M0 0 C6.30214697 0.33169195 10.85216936 3.67323988 16 7 C14 8 14 8 10.875 7.0625 C9.92625 6.711875 8.9775 6.36125 8 6 C8 5.34 8 4.68 8 4 C7.05125 3.71125 6.1025 3.4225 5.125 3.125 C2 2 2 2 0 0 Z " fill="#FDE5BF" transform="translate(564,405)"/>
<path d="M0 0 C2.68872443 2.35649699 3.9193851 4.63578765 5.25 7.9375 C5.78367187 9.21947266 5.78367187 9.21947266 6.328125 10.52734375 C7.04658772 13.17145366 6.91982605 14.45868571 6 17 C0.44419134 5.47835991 0.44419134 5.47835991 0 0 Z " fill="#FEE5BC" transform="translate(590,591)"/>
<path d="M0 0 C2.1640625 0.36328125 2.1640625 0.36328125 4 1 C2.54712339 2.33927721 1.08752741 3.67126847 -0.375 5 C-1.18710937 5.7425 -1.99921875 6.485 -2.8359375 7.25 C-5 9 -5 9 -7 9 C-5.4404735 5.17207132 -3.16368164 2.63640136 0 0 Z " fill="#FEEBCC" transform="translate(576,677)"/>
<path d="M0 0 C0.33 0.66 0.66 1.32 1 2 C-0.20821139 5.26615387 -1.95580867 7.07510336 -4.625 9.25 C-5.25664063 9.77078125 -5.88828125 10.2915625 -6.5390625 10.828125 C-7.02117188 11.21484375 -7.50328125 11.6015625 -8 12 C-8.66 11.67 -9.32 11.34 -10 11 C-6.7 7.37 -3.4 3.74 0 0 Z " fill="#90D0D9" transform="translate(700,488)"/>
<path d="M0 0 C0.99 0.33 1.98 0.66 3 1 C-5.261959 6.55580866 -5.261959 6.55580866 -10 7 C-10 6.34 -10 5.68 -10 5 C-3.375 2 -3.375 2 0 2 C0 1.34 0 0.68 0 0 Z " fill="#FEEDD2" transform="translate(574,457)"/>
<path d="M0 0 C1.98 0.99 1.98 0.99 4 2 C4 2.99 4 3.98 4 5 C4.66 5 5.32 5 6 5 C6 5.99 6 6.98 6 8 C6.66 8 7.32 8 8 8 C8 9.65 8 11.3 8 13 C6.99152789 11.67306301 5.99450461 10.33743723 5 9 C4.566875 8.42121094 4.13375 7.84242188 3.6875 7.24609375 C3.23375 6.62863281 2.78 6.01117188 2.3125 5.375 C1.87550781 4.78460938 1.43851563 4.19421875 0.98828125 3.5859375 C0 2 0 2 0 0 Z " fill="#201C13" transform="translate(627,351)"/>
<path d="M0 0 C0.66 0.33 1.32 0.66 2 1 C-0.88406243 4.40843742 -2.3708265 5.86591384 -6.8125 6.8125 C-8.3903125 6.9053125 -8.3903125 6.9053125 -10 7 C-7.21098485 3.90109428 -4.92211279 2.37803963 -1 1 C-0.67 0.67 -0.34 0.34 0 0 Z " fill="#ACD6DA" transform="translate(678,752)"/>
<path d="M0 0 C0.33 1.32 0.66 2.64 1 4 C-0.32 4 -1.64 4 -3 4 C-3 4.99 -3 5.98 -3 7 C-4.98 7.33 -6.96 7.66 -9 8 C-6.14723863 5.06799526 -3.34920216 2.35684596 0 0 Z " fill="#1D1E13" transform="translate(618,447)"/>
<path d="M0 0 C-0.95712891 0.19916016 -0.95712891 0.19916016 -1.93359375 0.40234375 C-3.17302734 0.66724609 -3.17302734 0.66724609 -4.4375 0.9375 C-5.26121094 1.11152344 -6.08492187 1.28554688 -6.93359375 1.46484375 C-8.97661204 1.80752994 -8.97661204 1.80752994 -10 3 C-12.67058851 3.14115161 -15.32432238 3.04247107 -18 3 C-18 2.67 -18 2.34 -18 2 C-15.75256955 1.46818825 -13.50192898 0.94992874 -11.25 0.4375 C-9.99703125 0.14746094 -8.7440625 -0.14257812 -7.453125 -0.44140625 C-4.40526252 -0.93444283 -2.82358172 -1.07666879 0 0 Z " fill="#1A1A13" transform="translate(589,696)"/>
<path d="M0 0 C0.6875 1.8125 0.6875 1.8125 1 4 C-0.3125 5.4375 -0.3125 5.4375 -2 7 C-3.19027984 9.59915538 -3.19027984 9.59915538 -4 12 C-4.66 11.67 -5.32 11.34 -6 11 C-4.54955729 6.89041233 -2.48889248 3.56741255 0 0 Z " fill="#232214" transform="translate(634,426)"/>
<path d="M0 0 C1.0326802 2.78823655 1.04509293 3.8677274 0.0625 6.75 C-0.288125 7.4925 -0.63875 8.235 -1 9 C-2.32 9 -3.64 9 -5 9 C-5 8.34 -5 7.68 -5 7 C-4.34 7 -3.68 7 -3 7 C-2.690625 6.030625 -2.38125 5.06125 -2.0625 4.0625 C-1 1 -1 1 0 0 Z " fill="#78C4D0" transform="translate(715,467)"/>
<path d="M0 0 C0.66 0.66 1.32 1.32 2 2 C0.35 4.64 -1.3 7.28 -3 10 C-4 6 -4 6 -2.0625 2.75 C-1.381875 1.8425 -0.70125 0.935 0 0 Z " fill="#B6E5EF" transform="translate(721,462)"/>
<path d="M0 0 C0.99 0.33 1.98 0.66 3 1 C2.34 2.32 1.68 3.64 1 5 C-1.31 5 -3.62 5 -6 5 C-4.06745228 2.9754262 -2.36841312 1.57894208 0 0 Z " fill="#AACACF" transform="translate(666,759)"/>
<path d="M0 0 C0.66 0 1.32 0 2 0 C1.01 3.96 0.02 7.92 -1 12 C-1.33 12 -1.66 12 -2 12 C-2 9.36 -2 6.72 -2 4 C-1.34 4 -0.68 4 0 4 C0 2.68 0 1.36 0 0 Z " fill="#DB9F4B" transform="translate(639,406)"/>
<path d="M0 0 C0.625 1.8125 0.625 1.8125 1 4 C0.01 5.485 0.01 5.485 -1 7 C-1.66 7 -2.32 7 -3 7 C-3 7.99 -3 8.98 -3 10 C-3.66 10 -4.32 10 -5 10 C-3.66511872 6.40608886 -2.03977277 3.24509304 0 0 Z " fill="#68AEB5" transform="translate(715,706)"/>
<path d="M0 0 C0 0.66 0 1.32 0 2 C0.66 2.33 1.32 2.66 2 3 C-1.96 3 -5.92 3 -10 3 C-6.48579734 1.24289867 -3.89581553 0 0 0 Z " fill="#CAAC89" transform="translate(554,694)"/>
<path d="M0 0 C1.65 0 3.3 0 5 0 C2.45368965 2.97069541 -0.42230149 4.4775751 -4 6 C-4.66 5.67 -5.32 5.34 -6 5 C-5.195625 4.54625 -4.39125 4.0925 -3.5625 3.625 C-0.91143428 2.25274335 -0.91143428 2.25274335 0 0 Z " fill="#E3A455" transform="translate(605,453)"/>
<path d="M0 0 C1.04973814 4.19895255 0.72795155 6.79405774 0 11 C-0.99 11 -1.98 11 -3 11 C-2.01 7.37 -1.02 3.74 0 0 Z " fill="#90BCC0" transform="translate(730,432)"/>
<path d="M0 0 C0.66 0 1.32 0 2 0 C1.5205537 4.21912747 0.83374881 6.79663178 -2 10 C-2.25 3.375 -2.25 3.375 0 0 Z " fill="#D79B48" transform="translate(635,418)"/>
<path d="M0 0 C0.66 0.33 1.32 0.66 2 1 C1.34 2.65 0.68 4.3 0 6 C-0.99 5.67 -1.98 5.34 -3 5 C-3 4.01 -3 3.02 -3 2 C-2.01 1.34 -1.02 0.68 0 0 Z " fill="#9FC8D0" transform="translate(678,508)"/>
<path d="M0 0 C0.66 0 1.32 0 2 0 C2.1875 2.875 2.1875 2.875 2 6 C1.01 6.66 0.02 7.32 -1 8 C-0.67 5.36 -0.34 2.72 0 0 Z " fill="#222114" transform="translate(641,636)"/>
</svg>
