<?xml version="1.0" encoding="UTF-8"?>
<svg version="1.1" xmlns="http://www.w3.org/2000/svg" width="1024" height="1024">
<path d="M0 0 C337.92 0 675.84 0 1024 0 C1024 337.92 1024 675.84 1024 1024 C686.08 1024 348.16 1024 0 1024 C0 686.08 0 348.16 0 0 Z " fill="#FEFEFB" transform="translate(0,0)"/>
<path d="M0 0 C34.75472254 -0.75553745 69.3840644 6.00045151 100 23 C101.1976859 23.64365875 102.39560163 24.28689003 103.59375 24.9296875 C115.65530594 31.50690884 126.548514 39.29889435 136.5546875 48.70703125 C138.65250304 50.67415221 140.79480787 52.53138796 143 54.375 C175.83922703 83.13440453 195.70711195 128.40648786 198.85498047 171.54394531 C201.95585955 224.06051696 184.46283551 275.72376887 149.5625 315.1875 C148.054626 316.80385414 146.53271331 318.40718029 145 320 C144.53013672 320.49564453 144.06027344 320.99128906 143.57617188 321.50195312 C135.63887543 329.84473087 127.25000707 337.15222592 118 344 C117.42636719 344.42909668 116.85273437 344.85819336 116.26171875 345.30029297 C102.67274762 355.4268372 88.30570079 363.75390205 73 371 C71.75621582 371.58998779 71.75621582 371.58998779 70.48730469 372.19189453 C43.67362169 384.82839818 15.986141 394.62669678 -12.86132812 401.47949219 C-15.88355094 402.21503774 -18.87738916 403.04542863 -21.875 403.875 C-38.46718199 408.33448743 -55.28853303 412.08914561 -72.125 415.5 C-143.05320976 430.06832882 -199.29447214 459.80228241 -239.73901367 520.93530273 C-241.88866304 524.22318629 -243.93860134 527.55657349 -245.9375 530.9375 C-246.618125 531.948125 -247.29875 532.95875 -248 534 C-248.99 534 -249.98 534 -251 534 C-252.21380092 478.16515756 -232.46145616 424.89210586 -194.03173828 384.171875 C-189.88509414 379.84533552 -185.68363327 375.74690662 -181 372 C-179.53433594 370.77796875 -179.53433594 370.77796875 -178.0390625 369.53125 C-168.92578598 362.04405481 -159.20045725 355.89328743 -149 350 C-148.38608398 349.6380957 -147.77216797 349.27619141 -147.13964844 348.90332031 C-120.38883336 333.22491215 -89.51207959 325.17691586 -59.61572266 317.88061523 C-48.55566925 315.17785824 -37.60820059 312.1842467 -26.72460938 308.83691406 C-24.93398905 308.28689198 -23.14105427 307.74433882 -21.34570312 307.20996094 C-1.94055244 301.41163805 17.81235938 293.37601594 34 281 C34.556875 280.58395508 35.11375 280.16791016 35.6875 279.73925781 C61.04371832 260.76307934 77.82133086 235.95664953 83.25 204.375 C86.28333316 180.05368003 82.52109858 157.25051163 68 137 C53.0964971 118.21656526 33.05219221 106.83180625 9.296875 103.3125 C-1.58100916 102.28142093 -12.32151578 102.59768821 -23 105 C-24.14597656 105.23332031 -25.29195312 105.46664062 -26.47265625 105.70703125 C-41.04961872 109.06387119 -53.84038826 116.06933307 -65 126 C-65.77730469 126.63550781 -66.55460938 127.27101563 -67.35546875 127.92578125 C-75.39745396 134.64764159 -80.43902932 142.58298473 -85.1875 151.8125 C-85.50855713 152.42738281 -85.82961426 153.04226563 -86.16040039 153.67578125 C-92.12839518 165.71352429 -94.21498087 178.74503769 -96.35449219 191.8605957 C-98.81051537 206.77673104 -102.64054349 221.16533519 -115 231 C-124.81083825 237.09461164 -134.52187112 239.58918152 -146 239 C-145.63648438 237.4221875 -145.63648438 237.4221875 -145.265625 235.8125 C-142.15623004 221.39436395 -140.73733484 206.88218505 -139.39550781 192.21679688 C-138.23020573 179.548995 -136.64797332 167.37160407 -133.0625 155.125 C-132.81048828 154.2278125 -132.55847656 153.330625 -132.29882812 152.40625 C-130.92603404 147.64535797 -129.34075261 143.38814719 -127 139 C-126.52304687 137.87464844 -126.04609375 136.74929688 -125.5546875 135.58984375 C-110.84214372 101.61791476 -81.84190146 78.336111 -48.19677734 64.51318359 C-38.44074337 60.68858337 -28.31800189 58.67777012 -18 57 C-16.81535156 56.8040625 -15.63070312 56.608125 -14.41015625 56.40625 C-8.34626576 55.69635687 -2.21846088 55.81401366 3.87866211 55.81469727 C6.0332472 55.81252943 8.18730321 55.79437838 10.34179688 55.77539062 C23.67098883 55.71953365 36.44248776 57.38928725 49.4375 60.4375 C50.35208984 60.64181641 51.26667969 60.84613281 52.20898438 61.05664062 C57.67502118 62.31441684 62.793906 63.9114734 68 66 C68 66.66 68 67.32 68 68 C68.68964844 68.10183594 69.37929688 68.20367187 70.08984375 68.30859375 C86.00705195 72.09026603 100.07325177 84.3826699 112 95 C113.05960938 95.91458984 113.05960938 95.91458984 114.140625 96.84765625 C123.73771992 105.69875849 132.42683227 118.20286337 138 130 C138 130.66 138 131.32 138 132 C138.66 132 139.32 132 140 132 C140.33 132.99 140.66 133.98 141 135 C141.66 135.33 142.32 135.66 143 136 C133.55650969 91.11564606 107.46471379 51.80437467 69.3125 26.125 C59.32149955 19.71567896 49.11856683 14.24821198 38 10 C37.32485352 9.73944824 36.64970703 9.47889648 35.95410156 9.21044922 C24.14976521 4.73992824 12.51312767 2.48903607 0 1 C0 0.67 0 0.34 0 0 Z " fill="#406485" transform="translate(514,226)"/>
<path d="M0 0 C1.78916165 -0.00128164 1.78916165 -0.00128164 3.61446798 -0.00258917 C6.89834582 -0.00394388 10.18218348 -0.00084768 13.46605659 0.0041889 C17.01737953 0.00852971 20.56870078 0.00704441 24.12002563 0.00628662 C30.26403872 0.00576368 36.40804114 0.00888644 42.55205154 0.01452446 C51.43512823 0.02267064 60.31819979 0.02525787 69.2012798 0.02651245 C83.61542114 0.02869808 98.02955681 0.03534488 112.44369507 0.04481506 C126.44109061 0.05400185 140.43848461 0.06107649 154.43588257 0.06532288 C155.29948405 0.0655856 156.16308553 0.06584832 157.05285676 0.06611901 C161.38553107 0.0674241 165.71820539 0.06868779 170.05087972 0.06993091 C205.96323493 0.08028828 241.8755837 0.09789327 277.78793335 0.12025452 C277.82236946 5.70075214 277.28968611 10.22647396 275.78793335 15.55775452 C275.56863159 16.33763733 275.34932983 17.11752014 275.12338257 17.92103577 C270.12033741 34.73616511 260.72372796 48.43175214 248.78793335 61.12025452 C248.24781616 61.73642639 247.70769897 62.35259827 247.1512146 62.98744202 C229.72737408 82.03516692 200.03395419 90.03869428 175.19777417 91.3030169 C171.39068529 91.36973012 167.58642089 91.37800408 163.77905273 91.36076355 C162.31916427 91.36163803 160.85927612 91.36339344 159.39938962 91.36594188 C155.42902692 91.37037189 151.458774 91.36247234 147.48842525 91.35238576 C143.19142626 91.34369016 138.89443269 91.34667571 134.59742737 91.34819031 C127.16625139 91.34923532 119.73511073 91.34299901 112.30394363 91.33171463 C101.55993508 91.31541032 90.81594348 91.31024659 80.0719239 91.30773865 C62.63740697 91.30336926 45.20290883 91.29008073 27.7684021 91.27113342 C10.83969211 91.25275501 -6.08901275 91.23860812 -23.01773071 91.2301178 C-24.06248803 91.22959235 -25.10724535 91.2290669 -26.18366198 91.22852553 C-31.42528208 91.22591532 -36.66690221 91.22338794 -41.90852237 91.22090173 C-85.34305014 91.20019279 -128.77755742 91.16498792 -172.21206665 91.12025452 C-170.59144458 86.85992137 -168.49023096 83.30885043 -165.83706665 79.62025452 C-165.40079956 79.01221985 -164.96453247 78.40418518 -164.51504517 77.77772522 C-159.98996339 71.6094796 -154.91231025 66.03561497 -149.59341431 60.54847717 C-148.36318993 59.27650605 -147.15149837 57.98666949 -145.9425354 56.69447327 C-136.26103956 46.58189041 -124.83636331 38.41766198 -112.91372681 31.16127014 C-111.29679232 30.17208669 -109.69721116 29.15470045 -108.0987854 28.13587952 C-76.60177697 8.90693664 -36.66371196 -0.09715343 0 0 Z " fill="#041D3D" transform="translate(475.2120666503906,668.8797454833984)"/>
<path d="M0 0 C1.90284221 3.80568442 -0.74241895 8.51217982 -1.89453125 12.421875 C-4.76115963 23.39133678 -5.36356772 34.52434536 -5.3125 45.8125 C-5.30686035 47.12549072 -5.3012207 48.43848145 -5.29541016 49.79125977 C-4.98186054 74.91093062 2.41139935 97.62744652 20.01953125 116.12109375 C36.5471404 131.85145274 57.45731235 137.68599865 79.70703125 137.24609375 C101.89804425 136.44458546 121.39747096 127.75065431 137 112 C150.67340003 97.18714996 153.86261523 77.0012421 157.07470703 57.89379883 C160.13461909 40.30380056 166.66573303 24.219967 181.3515625 13.2421875 C197.40582291 2.30255873 214.94851804 -1.15481472 234.125 1.4375 C249.52881719 5.32217544 262.50673248 15.52700673 270.9375 28.75 C279.34703449 44.45723148 280.42966999 62.08586666 275.38671875 79.015625 C271.48786103 90.7965135 265.45388758 100.91698591 257 110 C256.54028809 110.51127441 256.08057617 111.02254883 255.60693359 111.54931641 C228.15752843 141.91596157 186.00636555 151.37166375 147.77246094 160.71411133 C137.27004065 163.29448286 126.99562858 166.14700726 116.78466797 169.71875 C113.33664856 170.88603202 109.90314515 171.86070005 106.375 172.75 C84.81993345 178.78741447 62.3870648 189.20304134 44 202 C42.91847656 202.73605469 41.83695312 203.47210937 40.72265625 204.23046875 C23.7434211 215.94412672 8.72778247 229.73804904 -4 246 C-4.69738281 246.88816406 -5.39476562 247.77632812 -6.11328125 248.69140625 C-7.7505406 250.78801692 -9.3798496 252.89015784 -11 255 C-14.16287685 252.35312118 -15.64384829 248.99021968 -17.3125 245.3125 C-17.61736328 244.64387939 -17.92222656 243.97525879 -18.23632812 243.28637695 C-27.42632898 222.83098264 -33.44737013 201.12732249 -37 179 C-37.17901855 177.96866943 -37.35803711 176.93733887 -37.54248047 175.87475586 C-39.27310537 164.77582449 -39.33816424 153.76169158 -39.31567383 142.54980469 C-39.31251908 139.26984211 -39.33603427 135.990789 -39.36132812 132.7109375 C-39.39966869 119.83566658 -38.45793287 107.63245144 -36 95 C-35.71571259 93.44209929 -35.43300236 91.88390997 -35.15185547 90.32543945 C-33.32859514 80.36791048 -30.54514725 70.72708977 -27.5625 61.0625 C-27.19108887 59.85416504 -26.81967773 58.64583008 -26.43701172 57.40087891 C-24.02124934 49.74096481 -21.21654823 42.35746754 -18 35 C-17.65316162 34.1963501 -17.30632324 33.3927002 -16.94897461 32.56469727 C-16.03601336 30.45639426 -15.11394894 28.35240511 -14.1875 26.25 C-13.87619141 25.54101562 -13.56488281 24.83203125 -13.24414062 24.1015625 C-12.49709666 22.40060085 -11.74870572 20.70023086 -11 19 C-10.34 19 -9.68 19 -9 19 C-8.91878906 18.32582031 -8.83757812 17.65164063 -8.75390625 16.95703125 C-7.77189506 13.10530859 -5.96156811 10.08192164 -3.9375 6.6875 C-3.56044922 6.04232422 -3.18339844 5.39714844 -2.79492188 4.73242188 C-1.86962507 3.15121848 -0.93567319 1.5750854 0 0 Z " fill="#FE9F58" transform="translate(291,357)"/>
<path d="M0 0 C-1.32 0.66 -2.64 1.32 -4 2 C-3.06607422 2.09474609 -3.06607422 2.09474609 -2.11328125 2.19140625 C26.93358019 6.04001411 53.16688981 21.13019805 75 40 C75.81597656 40.69351563 76.63195312 41.38703125 77.47265625 42.1015625 C103.08659813 64.42750233 125.93869533 98.8361935 131 133 C131 134.32 131 135.64 131 137 C130.01 136.67 129.02 136.34 128 136 C128 135.01 128 134.02 128 133 C127.34 133 126.68 133 126 133 C125.57332031 132.18660156 125.14664062 131.37320313 124.70703125 130.53515625 C109.29804252 102.29063876 86.10632834 80.66734609 56 69 C56 68.34 56 67.68 56 67 C55.1440625 66.87367188 54.288125 66.74734375 53.40625 66.6171875 C50.00279681 66.00050676 46.81036485 65.12275015 43.5 64.125 C27.26787991 59.42127711 11.90386965 57.76412726 -4.9375 57.75 C-5.66444061 57.74932526 -6.39138123 57.74865051 -7.14035034 57.74795532 C-24.88601426 57.77402573 -41.31751853 59.81206314 -58 66 C-58.69722168 66.25797363 -59.39444336 66.51594727 -60.11279297 66.78173828 C-73.94653601 71.99630734 -86.58865438 78.4804824 -98 88 C-99.35931641 89.08474609 -99.35931641 89.08474609 -100.74609375 90.19140625 C-113.77955244 100.64293146 -123.50494629 112.35776571 -131.9375 126.75 C-132.39801758 127.52956055 -132.85853516 128.30912109 -133.33300781 129.11230469 C-135.91981579 133.6406547 -137.850148 138.05740641 -139.3894043 143.03955078 C-140.08992473 145.28872273 -140.98542739 147.40909973 -141.9375 149.5625 C-146.9970349 162.13891168 -148.80437286 175.3094979 -150.1875 188.6875 C-150.35255264 190.19086125 -150.51856659 191.69411726 -150.68554688 193.19726562 C-151.40574422 199.7753048 -152.04363131 206.34192189 -152.48828125 212.9453125 C-152.89173871 218.48344727 -153.77877313 223.77604904 -155 229.1875 C-155.17789063 230.01830078 -155.35578125 230.84910156 -155.5390625 231.70507812 C-156.84350198 237.68700397 -156.84350198 237.68700397 -158 240 C-156.02 240 -154.04 240 -152 240 C-152 240.33 -152 240.66 -152 241 C-167.85315953 241.77123479 -180.84557624 238.1218826 -193.1875 228 C-204.12228991 217.62151101 -210.38027804 201.976614 -211 187 C-211.0515625 185.92234375 -211.103125 184.8446875 -211.15625 183.734375 C-212.07273797 146.00562033 -198.93317665 101.99646689 -173.3125 73.5 C-171.87886302 71.99630746 -170.4416812 70.49598181 -169 69 C-167.86765016 67.69383574 -166.74233115 66.38153463 -165.625 65.0625 C-133.50628928 28.46039946 -85.37452916 5.28311114 -37 1 C-33.27268636 0.7581409 -29.54447381 0.58914549 -25.8125 0.4375 C-24.80888428 0.3950415 -23.80526855 0.35258301 -22.77124023 0.30883789 C-15.17573671 0.0053597 -7.6018023 -0.11857231 0 0 Z " fill="#A7BCC2" transform="translate(526,225)"/>
<path d="M0 0 C34.75472254 -0.75553745 69.3840644 6.00045151 100 23 C101.1976859 23.64365875 102.39560163 24.28689003 103.59375 24.9296875 C115.65530594 31.50690884 126.548514 39.29889435 136.5546875 48.70703125 C138.65250304 50.67415221 140.79480787 52.53138796 143 54.375 C175.83922703 83.13440453 195.70711195 128.40648786 198.85498047 171.54394531 C201.95585955 224.06051696 184.46283551 275.72376887 149.5625 315.1875 C148.054626 316.80385414 146.53271331 318.40718029 145 320 C144.53013672 320.49564453 144.06027344 320.99128906 143.57617188 321.50195312 C135.63887543 329.84473087 127.25000707 337.15222592 118 344 C117.42636719 344.42909668 116.85273437 344.85819336 116.26171875 345.30029297 C102.67274762 355.4268372 88.30570079 363.75390205 73 371 C72.17081055 371.3933252 71.34162109 371.78665039 70.48730469 372.19189453 C43.67362169 384.82839818 15.986141 394.62669678 -12.86132812 401.47949219 C-15.88355094 402.21503774 -18.87738916 403.04542863 -21.875 403.875 C-38.46718199 408.33448743 -55.28853303 412.08914561 -72.125 415.5 C-105.99476401 422.45669411 -140.08857846 431.4488027 -169.46020508 450.34594727 C-170.93994714 451.28562834 -172.46638888 452.15107479 -174 453 C-174.66 452.67 -175.32 452.34 -176 452 C-138.29094064 416.19278885 -97.55892293 399.22467299 -47.75552368 386.49815369 C-41.13185044 384.7956605 -34.56817883 382.90306273 -28 381 C-25.9362512 380.41309124 -23.87172875 379.82895139 -21.80722046 379.24472046 C-18.91304357 378.42287767 -16.02213101 377.58990659 -13.1315918 376.75537109 C-11.66815551 376.33492016 -10.20362645 375.91825441 -8.73803711 375.50537109 C0.97060081 372.76667706 9.92162128 369.47065512 19 365 C20.87525421 364.13809784 22.75279875 363.28115798 24.6328125 362.4296875 C42.47042606 354.18894672 58.78000439 344.44561901 74 332 C74.53286621 331.56864746 75.06573242 331.13729492 75.61474609 330.69287109 C89.56216321 319.53551875 89.56216321 319.53551875 101 306 C101.66 306 102.32 306 103 306 C103.26039063 305.42378906 103.52078125 304.84757812 103.7890625 304.25390625 C105.08855317 301.83517685 106.58491383 300.01838076 108.375 297.9375 C126.47490554 275.50935617 138.3695142 248.43897258 144.875 220.5 C145.07843018 219.62867432 145.28186035 218.75734863 145.49145508 217.85961914 C151.56363021 190.06237527 150.06996863 157.04546273 141.57861328 129.92333984 C140.76111521 127.20593488 140.13262836 124.45298967 139.5 121.6875 C129.19421525 80.17967082 98.4736565 43.84322441 62.5625 21.875 C54.69665748 17.17928698 46.56032911 13.27075362 38 10 C37.32485352 9.73944824 36.64970703 9.47889648 35.95410156 9.21044922 C24.14976521 4.73992824 12.51312767 2.48903607 0 1 C0 0.67 0 0.34 0 0 Z " fill="#041D3D" transform="translate(514,226)"/>
<path d="M0 0 C2.20016266 2.06185993 3.79003613 4.0771944 5.3125 6.67578125 C5.74256348 7.40941895 6.17262695 8.14305664 6.61572266 8.89892578 C28.59808101 47.22654389 44.99300017 89.85113824 45.203125 134.6171875 C45.20882507 135.59503204 45.21452515 136.57287659 45.22039795 137.58035278 C45.22977715 139.63916976 45.23635344 141.69800126 45.24023438 143.75683594 C45.24986835 146.83296507 45.28093134 149.90840393 45.3125 152.984375 C45.40826402 170.71495805 43.36303761 187.74392482 39.25 205 C38.99395996 206.08539062 38.73791992 207.17078125 38.47412109 208.2890625 C33.33433068 229.45545677 25.30960881 248.8934166 15.3125 268.1875 C14.86100586 269.06083984 14.40951172 269.93417969 13.94433594 270.83398438 C13.50508789 271.66607422 13.06583984 272.49816406 12.61328125 273.35546875 C12.22954346 274.08403076 11.84580566 274.81259277 11.45043945 275.56323242 C10.73247192 276.76943237 10.73247192 276.76943237 10 278 C9.47865479 279.1888681 8.95730957 280.37773621 8.42016602 281.60263062 C6.3765935 284.39821094 5.27288654 284.94526094 1.82854748 285.63617039 C-2.52034848 285.8664114 -6.82084533 285.86608934 -11.1730957 285.79467773 C-12.84868792 285.79270273 -14.52428619 285.79381251 -16.19987488 285.79777527 C-20.74541949 285.79978388 -25.28967129 285.75862865 -29.8349154 285.70975757 C-34.58609987 285.66600009 -39.33731395 285.6618866 -44.08866882 285.65357971 C-53.08444389 285.63182226 -62.07962351 285.57437833 -71.07513636 285.50413328 C-81.31681119 285.42589307 -91.55851445 285.38740415 -101.80041373 285.35226524 C-122.86727484 285.2790958 -143.93359991 285.15597021 -165 285 C-162.13617825 283.0907855 -159.4846368 282.0581952 -156.25146484 280.94604492 C-126.88815178 270.80131287 -98.77350307 255.04645465 -75 235 C-74.45069824 234.53948242 -73.90139648 234.07896484 -73.33544922 233.60449219 C-63.28946223 225.2085965 -63.28946223 225.2085965 -54 216 C-53.48953125 215.44828125 -52.9790625 214.8965625 -52.453125 214.328125 C-28.85001173 188.02751307 -11.84905622 158.38807145 -1.75927734 124.52807617 C-1.17641657 122.58739343 -0.54565442 120.66104518 0.10546875 118.7421875 C12.55594514 80.57522496 9.74427444 38.33522619 0 0 Z " fill="#EF4E53" transform="translate(734,352)"/>
<path d="M0 0 C1.90284221 3.80568442 -0.74241895 8.51217982 -1.89453125 12.421875 C-4.76115963 23.39133678 -5.36356772 34.52434536 -5.3125 45.8125 C-5.30686035 47.12549072 -5.3012207 48.43848145 -5.29541016 49.79125977 C-5.05482461 69.06549689 -0.90062966 84.92389809 8.703125 101.73046875 C9.87974038 103.78954566 10.96131758 105.86874127 12 108 C11.34 108 10.68 108 10 108 C8.5911026 106.15962777 7.27159702 104.25028296 6 102.3125 C5.29875 101.25675781 4.5975 100.20101562 3.875 99.11328125 C1.26818707 94.78488561 0 92.08754565 0 87 C-0.66 87 -1.32 87 -2 87 C-5.80930187 72.97852714 -8.26606628 59.72989313 -8.3125 45.1875 C-8.31789795 44.16245361 -8.3232959 43.13740723 -8.32885742 42.08129883 C-8.26245428 34.89532381 -7.36895322 28.0500699 -6 21 C-11.18262278 24.99802329 -12.69079892 29.85080894 -14.7890625 35.94140625 C-16 39 -16 39 -17.5546875 41.06640625 C-19.32892053 43.44004233 -19.82360565 45.50032401 -20.5 48.375 C-21.57019113 52.60533666 -23.01144212 56.10934327 -25 60 C-26.17603595 63.64425955 -27 67.03618949 -27 70.875 C-27 71.57625 -27 72.2775 -27 73 C-27.99 73.99 -27.99 73.99 -29 75 C-29.61005788 77.19089175 -29.61005788 77.19089175 -30 79.6875 C-30.54423974 82.66806292 -31.13740035 85.46372618 -32 88.375 C-34.51212301 97.48144592 -35.28763558 106.65094531 -35.75390625 116.04296875 C-36 119 -36 119 -37 120 C-37.113739 123.02067848 -37.16419749 126.01758548 -37.16796875 129.0390625 C-37.17129715 129.95327972 -37.17462555 130.86749695 -37.17805481 131.80941772 C-37.18313063 133.75135799 -37.18546293 135.69330702 -37.18530273 137.63525391 C-37.18747547 140.59162075 -37.20558588 143.5476062 -37.22460938 146.50390625 C-37.227546 148.39062373 -37.22952899 150.27734297 -37.23046875 152.1640625 C-37.23765427 153.04349518 -37.24483978 153.92292786 -37.25224304 154.82901001 C-37.23335172 159.96911916 -36.56964604 164.11194078 -35 169 C-35.0234375 171.87109375 -35.0234375 171.87109375 -35.375 174.4375 C-35.48585937 175.30246094 -35.59671875 176.16742187 -35.7109375 177.05859375 C-35.80632812 177.69925781 -35.90171875 178.33992187 -36 179 C-36.33 179 -36.66 179 -37 179 C-39.14790327 166.85764587 -39.34035855 154.85559545 -39.31567383 142.54980469 C-39.31251908 139.26984211 -39.33603427 135.990789 -39.36132812 132.7109375 C-39.39966869 119.83566658 -38.45793287 107.63245144 -36 95 C-35.71571259 93.44209929 -35.43300236 91.88390997 -35.15185547 90.32543945 C-33.32859514 80.36791048 -30.54514725 70.72708977 -27.5625 61.0625 C-27.19108887 59.85416504 -26.81967773 58.64583008 -26.43701172 57.40087891 C-24.02124934 49.74096481 -21.21654823 42.35746754 -18 35 C-17.65316162 34.1963501 -17.30632324 33.3927002 -16.94897461 32.56469727 C-16.03601336 30.45639426 -15.11394894 28.35240511 -14.1875 26.25 C-13.87619141 25.54101562 -13.56488281 24.83203125 -13.24414062 24.1015625 C-12.49709666 22.40060085 -11.74870572 20.70023086 -11 19 C-10.34 19 -9.68 19 -9 19 C-8.91878906 18.32582031 -8.83757812 17.65164063 -8.75390625 16.95703125 C-7.77189506 13.10530859 -5.96156811 10.08192164 -3.9375 6.6875 C-3.56044922 6.04232422 -3.18339844 5.39714844 -2.79492188 4.73242188 C-1.86962507 3.15121848 -0.93567319 1.5750854 0 0 Z " fill="#F5C57A" transform="translate(291,357)"/>
<path d="M0 0 C0 3.34238213 -0.48151073 5.03533048 -2 8 C-3.65002828 9.35386936 -5.3174387 10.68678142 -7 12 C-7.38285156 12.69609375 -7.76570312 13.3921875 -8.16015625 14.109375 C-10.87638899 18.37691688 -14.4155646 21.7038326 -18 25.25 C-19.08667969 26.34828125 -19.08667969 26.34828125 -20.1953125 27.46875 C-21.24332031 28.51289062 -21.24332031 28.51289062 -22.3125 29.578125 C-22.94800781 30.21137695 -23.58351563 30.84462891 -24.23828125 31.49707031 C-26 33 -26 33 -29 34 C-29.495 34.66 -29.99 35.32 -30.5 36 C-32 38 -32 38 -35 39 C-36.051875 40.36125 -36.051875 40.36125 -37.125 41.75 C-39.77035048 45.07042509 -42.65579251 46.59026428 -46.390625 48.5078125 C-50.65156257 50.94445644 -54.43416068 54.00434719 -58.30078125 57.01171875 C-61.71387371 59.52584908 -63.73209461 61 -68 61 C-68 61.66 -68 62.32 -68 63 C-77.95825648 68.44230296 -88.03040145 73.58700871 -98.22265625 78.578125 C-101.10221397 79.98538712 -101.10221397 79.98538712 -104 82 C-105.9959722 82.67863055 -107.99568551 83.34641919 -110 84 C-110.495 84.495 -110.495 84.495 -111 85 C-34.275 85.495 -34.275 85.495 44 86 C44 86.33 44 86.66 44 87 C-12.1 87 -68.2 87 -126 87 C-123.13617825 85.0907855 -120.4846368 84.0581952 -117.25146484 82.94604492 C-87.88815178 72.80131287 -59.77350307 57.04645465 -36 37 C-35.17604736 36.30922363 -35.17604736 36.30922363 -34.33544922 35.60449219 C-21.41474109 24.75291177 -10.46314631 13.26237766 0 0 Z " fill="#D36B7B" transform="translate(695,550)"/>
<path d="M0 0 C2.20016266 2.06185993 3.79003613 4.0771944 5.3125 6.67578125 C5.74256348 7.40941895 6.17262695 8.14305664 6.61572266 8.89892578 C15.6253491 24.60777359 23.93020173 40.32111428 30.125 57.375 C30.50350098 58.41479004 30.88200195 59.45458008 31.27197266 60.52587891 C33.20673335 66.05801486 34.53950336 71.15308812 35 77 C32.54268128 74.54268128 32.27111307 72.78504568 31.4375 69.4375 C30.78577597 65.92225001 30.78577597 65.92225001 29 63 C28.95936168 61.33382885 28.957279 59.66611905 29 58 C28.34 58 27.68 58 27 58 C26.34 54.7 25.68 51.4 25 48 C23.515 47.505 23.515 47.505 22 47 C21.938125 46.195625 21.87625 45.39125 21.8125 44.5625 C20.73463007 39.8364549 18.48408581 36.12486573 16 32 C15.67 32 15.34 32 15 32 C14.81824219 31.39671875 14.63648438 30.7934375 14.44921875 30.171875 C13.09606276 25.86953288 11.86043836 22.54149511 9 19 C9 18.01 9 17.02 9 16 C8.01 16 7.02 16 6 16 C6.350625 16.94875 6.70125 17.8975 7.0625 18.875 C8 22 8 22 7 24 C7.66 24.33 8.32 24.66 9 25 C9 26.32 9 27.64 9 29 C9.16153564 29.98339355 9.32307129 30.96678711 9.48950195 31.97998047 C10.30343062 37.39629927 10.16258386 42.85535833 10.16796875 48.3203125 C10.17129715 49.49713593 10.17462555 50.67395935 10.17805481 51.88644409 C10.18310268 54.36586111 10.1854638 56.84528488 10.18530273 59.32470703 C10.18749649 63.11892798 10.20569502 66.91286139 10.22460938 70.70703125 C10.22754227 73.11979067 10.22952776 75.53255148 10.23046875 77.9453125 C10.23765427 79.07873077 10.24483978 80.21214905 10.25224304 81.37991333 C10.24916641 82.43806244 10.24608978 83.49621155 10.24291992 84.58642578 C10.24434494 85.51351349 10.24576996 86.4406012 10.24723816 87.39578247 C9.97576444 90.25527881 9.14468927 92.37961043 8 95 C7.63845275 96.84523003 7.32841691 98.7010816 7.0625 100.5625 C6.2351759 105.86519146 5.07476848 110.99422922 3.71484375 116.18359375 C3.07667542 118.69790721 2.55589429 121.20443476 2.0625 123.75 C1.10551972 128.1569344 -0.52781903 132.21447288 -3 136 C-3.66 136.33 -4.32 136.66 -5 137 C-3.59706855 131.7663692 -2.18492673 126.5453709 -0.5625 121.375 C11.4564173 81.45954309 10.19317309 40.10125109 0 0 Z " fill="#EF9366" transform="translate(734,352)"/>
<path d="M0 0 C3.54572841 0.00875354 7.09145105 0.00570606 10.63718724 0.00419545 C16.75924629 0.00315402 22.88126223 0.0093523 29.00331044 0.02067113 C37.85442091 0.03702484 46.70551084 0.04214415 55.55663477 0.04464711 C69.92197799 0.04900885 84.28729832 0.06227637 98.65262914 0.08125234 C112.59533632 0.09965072 126.53803725 0.11378778 140.48075414 0.12226796 C141.77300368 0.12305613 141.77300368 0.12305613 143.09135927 0.12386023 C147.41386848 0.12647057 151.73637773 0.12899792 156.058887 0.13148403 C191.83705825 0.1521691 227.6152029 0.18735282 263.39335179 0.23213124 C263.39335179 2.54213124 263.39335179 4.85213124 263.39335179 7.23213124 C263.06335179 7.23213124 262.73335179 7.23213124 262.39335179 7.23213124 C262.39335179 5.25213124 262.39335179 3.27213124 262.39335179 1.23213124 C261.57641347 1.24465932 260.75947515 1.2571874 259.91778111 1.27009511 C248.26405987 1.44510257 236.61006437 1.59390725 224.95585179 1.73213124 C223.94950814 1.74415578 222.94316449 1.75618032 221.90632558 1.76856923 C186.8938669 2.18094476 151.88442185 2.27305712 116.86991429 2.26338124 C115.83160584 2.26313388 114.79329739 2.26288651 113.72352505 2.26263165 C92.50987368 2.25729584 71.29624155 2.24161517 50.08261418 2.20891833 C41.91811475 2.1964235 33.75361524 2.18695445 25.58910966 2.1795156 C19.86032236 2.17398652 14.13156771 2.16384714 8.40279442 2.15014148 C4.88611764 2.14272828 1.36944591 2.13943113 -2.14723766 2.13728547 C-3.77006843 2.13543485 -5.39289831 2.13184875 -7.01572096 2.1263926 C-9.22434195 2.1191831 -11.43288379 2.11813423 -13.64151454 2.11860585 C-14.87387497 2.11638524 -16.1062354 2.11416463 -17.37594008 2.11187673 C-20.25771243 2.21914304 -22.80386338 2.59777724 -25.60664821 3.23213124 C-27.15330367 3.3080838 -28.70269602 3.34032139 -30.25117946 3.32978749 C-31.51284938 3.32495351 -31.51284938 3.32495351 -32.80000758 3.32002187 C-33.66432399 3.31164296 -34.52864039 3.30326406 -35.41914821 3.29463124 C-36.30280055 3.29011952 -37.18645289 3.28560781 -38.09688258 3.28095937 C-40.2668338 3.2692299 -42.43674992 3.25129619 -44.60664821 3.23213124 C-44.60664821 2.90213124 -44.60664821 2.57213124 -44.60664821 2.23213124 C-29.73839085 0.05237035 -15.00532839 -0.04660006 0 0 Z " fill="#0D1E33" transform="translate(489.6066482067108,668.7678687572479)"/>
<path d="M0 0 C0.66 0 1.32 0 2 0 C0.65760506 3.61414023 -0.62878418 6.94423892 -3 10 C-5.89915752 10.61523914 -5.89915752 10.61523914 -9.51091003 10.60127258 C-10.17500879 10.60554471 -10.83910755 10.60981683 -11.52333051 10.61421841 C-13.75345855 10.62246881 -15.98171463 10.59493407 -18.21166992 10.56762695 C-19.80815079 10.5662169 -21.40463491 10.56700762 -23.00111389 10.56983948 C-27.33992366 10.57127675 -31.67804526 10.54183725 -36.01669478 10.50696969 C-40.54904317 10.47575761 -45.08140655 10.47277953 -49.61384583 10.46684265 C-58.1987289 10.45128901 -66.78329442 10.41024009 -75.36803752 10.3600952 C-85.1405486 10.30424892 -94.91307467 10.27672713 -104.68570554 10.25161803 C-124.79064775 10.19932549 -144.89530389 10.11135377 -165 10 C-165 9.67 -165 9.34 -165 9 C-111.87 9 -58.74 9 -4 9 C-3.67 7.35 -3.34 5.7 -3 4 C-2.67 3.34 -2.34 2.68 -2 2 C-1.34 2 -0.68 2 0 2 C0 1.34 0 0.68 0 0 Z " fill="#C93450" transform="translate(743,626)"/>
<path d="M0 0 C14.3002054 -0.31087403 28.97687177 -0.15733719 43 3 C42.38722388 5.96175123 41.74627478 7.38058783 40 10 C39.45214844 9.82984375 38.90429688 9.6596875 38.33984375 9.484375 C35.56549379 8.63628103 32.78435568 7.81468185 30 7 C28.85273437 6.66355469 27.70546875 6.32710937 26.5234375 5.98046875 C17.6852949 3.49648551 9.12055778 1.98320907 0 1 C0 0.67 0 0.34 0 0 Z " fill="#162A44" transform="translate(514,226)"/>
<path d="M0 0 C0.33 0 0.66 0 1 0 C1.0507527 6.60193597 1.08575576 13.20382153 1.10986328 19.8059082 C1.11991444 22.05137004 1.13355744 24.29681881 1.15087891 26.54223633 C1.17516581 29.77167997 1.18649207 33.00095038 1.1953125 36.23046875 C1.20563507 37.23272995 1.21595764 38.23499115 1.22659302 39.2676239 C1.22674408 40.20822159 1.22689514 41.14881927 1.22705078 42.11791992 C1.231492 42.94176682 1.23593323 43.76561371 1.24050903 44.61442566 C0.96333188 47.36370574 0.08975605 49.47225758 -1 52 C-1.36154725 53.84523003 -1.67158309 55.7010816 -1.9375 57.5625 C-2.7648241 62.86519146 -3.92523152 67.99422922 -5.28515625 73.18359375 C-5.92332458 75.69790721 -6.44410571 78.20443476 -6.9375 80.75 C-7.89448028 85.1569344 -9.52781903 89.21447288 -12 93 C-12.99 93.495 -12.99 93.495 -14 94 C-12.59706855 88.7663692 -11.18492673 83.5453709 -9.5625 78.375 C-8.21114677 73.88708478 -7.04417233 69.36575437 -5.9375 64.8125 C-5.77515869 64.16651855 -5.61281738 63.52053711 -5.44555664 62.85498047 C-2.06332002 48.62175921 -1.49915745 34.11301123 -0.875 19.5625 C-0.78835832 17.6555717 -0.7011225 15.7486703 -0.61328125 13.84179688 C-0.40202132 9.22814522 -0.19874225 4.61420713 0 0 Z " fill="#EB7E62" transform="translate(743,395)"/>
<path d="M0 0 C3.69076946 3.69076946 3.91049824 9.52173205 5 14.5 C5.26039063 15.62792969 5.52078125 16.75585938 5.7890625 17.91796875 C9.50139258 34.66095239 10.30892339 51.05646054 10.20581055 68.16381836 C10.18726197 71.35343231 10.18530363 74.54275896 10.18554688 77.73242188 C10.18064016 79.77604418 10.17481558 81.81966453 10.16796875 83.86328125 C10.16685593 84.80907547 10.1657431 85.75486969 10.16459656 86.72932434 C10.13414827 90.94111249 10.07633859 94.89595584 9 99 C8.67 99 8.34 99 8 99 C8.00523682 98.40912598 8.01047363 97.81825195 8.01586914 97.20947266 C8.11483296 84.14875431 7.95048169 71.13315672 7.35571289 58.08447266 C7.31051514 57.07175293 7.26531738 56.0590332 7.21875 55.015625 C7.17371338 54.01378174 7.12867676 53.01193848 7.08227539 51.97973633 C7.00131254 49.04753563 7.07128657 46.14645295 7.15234375 43.21484375 C7.1823547 36.41347304 5.89794548 29.95062557 4.49145508 23.33227539 C4.05543457 21.27923176 3.63680006 19.2231814 3.22070312 17.16601562 C2.51452096 11.10885425 2.51452096 11.10885425 0 6 C-0.04080783 4.00041636 -0.04254356 1.99954746 0 0 Z " fill="#E87B68" transform="translate(769,429)"/>
<path d="M0 0 C-0.91136719 0.268125 -1.82273437 0.53625 -2.76171875 0.8125 C-20.98903759 6.27710052 -38.25484714 13.33718281 -55.2902832 21.78320312 C-56.39460693 22.32912109 -57.49893066 22.87503906 -58.63671875 23.4375 C-59.62373779 23.93121094 -60.61075684 24.42492187 -61.62768555 24.93359375 C-64 26 -64 26 -66 26 C-66 25.34 -66 24.68 -66 24 C-65.236875 23.731875 -64.47375 23.46375 -63.6875 23.1875 C-61.00940089 22.19741865 -61.00940089 22.19741865 -59.4375 20.4375 C-57.65574381 18.65574381 -56.43055634 18.596827 -54 18 C-51.6798712 16.99876591 -49.40449891 15.92186204 -47.12109375 14.83984375 C-45 14 -45 14 -42 14 C-42 13.34 -42 12.68 -42 12 C-41.12859375 11.69707031 -40.2571875 11.39414062 -39.359375 11.08203125 C-33.46248582 9.00790898 -27.66209295 6.8962732 -21.9375 4.375 C-6.51994681 -2.1733156 -6.51994681 -2.1733156 0 0 Z " fill="#EF996C" transform="translate(412,525)"/>
<path d="M0 0 C-4.19323507 2.53341286 -8.11100129 4.44024703 -12.74609375 6.08203125 C-18.45272241 8.40622143 -23.88072115 11.58714743 -29 15 C-30.9812585 15.72045764 -32.98504093 16.38001259 -35 17 C-36.19625 17.391875 -37.3925 17.78375 -38.625 18.1875 C-41.89680343 18.97515638 -42.94433641 18.94071739 -46 18 C-44.95513428 17.57605957 -44.95513428 17.57605957 -43.88916016 17.14355469 C-35.6061566 13.74226224 -27.48238018 10.04390613 -19.375 6.25 C-18.09775663 5.65473249 -16.82041332 5.05967937 -15.54296875 4.46484375 C-3.62797795 -1.08839338 -3.62797795 -1.08839338 0 0 Z " fill="#C8435D" transform="translate(620,617)"/>
<path d="M0 0 C-3 1 -3 1 -5.6875 -0.1875 C-7.40130066 -1.12523998 -9.11439971 -2.06445747 -10.81640625 -3.0234375 C-20.04413573 -7.98217698 -29.63380851 -8.6723171 -40 -8 C-40.33 -7.67 -40.66 -7.34 -41 -7 C-43.0572917 -6.68076508 -45.11613521 -6.48838648 -47.1875 -6.28125 C-49.0167533 -6.18001957 -49.0167533 -6.18001957 -50 -5 C-52.33297433 -4.95907063 -54.66705225 -4.95758277 -57 -5 C-42.98212224 -19.01787776 -13.96489451 -8.00653952 0 0 Z " fill="#F3B579" transform="translate(545,368)"/>
<path d="M0 0 C0 3.34238213 -0.48151073 5.03533048 -2 8 C-3.65002828 9.35386936 -5.3174387 10.68678142 -7 12 C-7.46962158 12.7839917 -7.93924316 13.5679834 -8.4230957 14.37573242 C-9.99568446 16.99281813 -11.62369335 18.85371426 -13.79296875 20.98828125 C-14.50517578 21.69404297 -15.21738281 22.39980469 -15.95117188 23.12695312 C-17.0581543 24.20879883 -17.0581543 24.20879883 -18.1875 25.3125 C-18.93708984 26.05306641 -19.68667969 26.79363281 -20.45898438 27.55664062 C-22.30153282 29.37571712 -24.14859662 31.18994389 -26 33 C-26.66 32.67 -27.32 32.34 -28 32 C-27.32195313 31.26136719 -26.64390625 30.52273438 -25.9453125 29.76171875 C-23.99050562 27.63174362 -22.03777832 25.4998807 -20.0859375 23.3671875 C-18.15947554 21.26263912 -16.22686923 19.16448404 -14.2890625 17.0703125 C-9.23374644 11.57946152 -4.46244532 5.98440515 0 0 Z " fill="#DB4D5B" transform="translate(695,550)"/>
<path d="M0 0 C2.51952767 0.01005605 5.03905925 0.01917723 7.55859375 0.02734375 C13.66414945 0.04913484 19.76955582 0.08240186 25.875 0.125 C25.875 0.455 25.875 0.785 25.875 1.125 C25.2847554 1.13530746 24.6945108 1.14561493 24.08638 1.15623474 C17.93809358 1.26449106 11.78994804 1.37907326 5.6418457 1.49731445 C3.3479304 1.54060199 1.05398417 1.58228142 -1.23999023 1.62231445 C-4.53899454 1.68016666 -7.83784401 1.74381822 -11.13671875 1.80859375 C-12.16085373 1.82530624 -13.18498871 1.84201874 -14.24015808 1.85923767 C-15.20077652 1.87918289 -16.16139496 1.89912811 -17.15112305 1.91967773 C-17.99273483 1.93522202 -18.83434662 1.9507663 -19.70146179 1.96678162 C-22.24893161 2.13309076 -24.63019496 2.59659776 -27.125 3.125 C-28.67165547 3.20095256 -30.22104781 3.23319015 -31.76953125 3.22265625 C-33.03120117 3.21782227 -33.03120117 3.21782227 -34.31835938 3.21289062 C-35.18267578 3.20451172 -36.04699219 3.19613281 -36.9375 3.1875 C-37.82115234 3.18298828 -38.70480469 3.17847656 -39.61523438 3.17382812 C-41.78518559 3.16209866 -43.95510172 3.14416495 -46.125 3.125 C-46.125 2.795 -46.125 2.465 -46.125 2.125 C-30.74921278 -0.13337444 -15.51403034 -0.10863306 0 0 Z " fill="#1E2D3D" transform="translate(491.125,668.875)"/>
<path d="M0 0 C0.66 0.33 1.32 0.66 2 1 C-7.80918632 12.60476619 -22.13240362 20.28413854 -36 26 C-36.33 25.34 -36.66 24.68 -37 24 C-36.01 24 -35.02 24 -34 24 C-34 23.34 -34 22.68 -34 22 C-31.09399739 20.74335022 -29.20395416 20 -26 20 C-26 19.34 -26 18.68 -26 18 C-25.360625 17.87625 -24.72125 17.7525 -24.0625 17.625 C-23.381875 17.41875 -22.70125 17.2125 -22 17 C-21.67 16.34 -21.34 15.68 -21 15 C-15.57692308 12 -15.57692308 12 -13 12 C-13 11.34 -13 10.68 -13 10 C-10.5 8.5 -10.5 8.5 -8 7 C-6.31337542 5.35353315 -4.64488294 3.68816933 -3 2 C-2.01 1.34 -1.02 0.68 0 0 Z " fill="#EE9068" transform="translate(541,471)"/>
<path d="M0 0 C0.680625 0.680625 1.36125 1.36125 2.0625 2.0625 C2.52785156 2.52140625 2.99320312 2.9803125 3.47265625 3.453125 C4.48620595 4.4796357 5.47406721 5.53219534 6.43359375 6.609375 C15.71430466 16.70012302 28.56951412 21.89376703 41 27 C41 27.33 41 27.66 41 28 C37.04170312 28.22822613 34.32148459 27.55050009 30.6875 26 C29.80449219 25.62875 28.92148437 25.2575 28.01171875 24.875 C27.01591797 24.441875 27.01591797 24.441875 26 24 C26 23.34 26 22.68 26 22 C25.2678125 21.89300781 24.535625 21.78601563 23.78125 21.67578125 C20.8020785 20.95190952 19.00465946 19.92929663 16.5 18.1875 C15.72527344 17.64996094 14.95054687 17.11242187 14.15234375 16.55859375 C9.60476107 13.26551664 5.67472127 10.05400129 2.375 5.5 C1.92898438 4.8915625 1.48296875 4.283125 1.0234375 3.65625 C0 2 0 2 0 0 Z " fill="#F3B574" transform="translate(303,465)"/>
<path d="M0 0 C0.66 1.32 1.32 2.64 2 4 C1.67 4.33 1.34 4.66 1 5 C0.886261 8.02067848 0.83580251 11.01758548 0.83203125 14.0390625 C0.82870285 14.95327972 0.82537445 15.86749695 0.82194519 16.80941772 C0.81686937 18.75135799 0.81453707 20.69330702 0.81469727 22.63525391 C0.81252453 25.59162075 0.79441412 28.5476062 0.77539062 31.50390625 C0.772454 33.39062373 0.77047101 35.27734297 0.76953125 37.1640625 C0.76234573 38.04349518 0.75516022 38.92292786 0.74775696 39.82901001 C0.76664828 44.96911916 1.43035396 49.11194078 3 54 C2.9765625 56.87109375 2.9765625 56.87109375 2.625 59.4375 C2.51414063 60.30246094 2.40328125 61.16742187 2.2890625 62.05859375 C2.19367188 62.69925781 2.09828125 63.33992187 2 64 C1.67 64 1.34 64 1 64 C-1.05054354 52.2648497 -1.27985246 40.75203763 -1.20581055 28.86206055 C-1.18730307 25.77970272 -1.18530323 22.69764256 -1.18554688 19.61523438 C-1.18063908 17.64583073 -1.17481402 15.67642911 -1.16796875 13.70703125 C-1.16685593 12.79041214 -1.1657431 11.87379303 -1.16459656 10.92939758 C-1.15821671 10.07718124 -1.15183685 9.2249649 -1.14526367 8.34692383 C-1.14145187 7.60162918 -1.13764008 6.85633453 -1.13371277 6.0884552 C-0.99687748 3.95122953 -0.58409564 2.05634417 0 0 Z " fill="#F3BE7D" transform="translate(253,472)"/>
<path d="M0 0 C10.05598201 -0.10055982 19.98707052 -0.09945892 30 1 C29.01 1.33 28.02 1.66 27 2 C27 2.99 27 3.98 27 5 C27.99 4.67 28.98 4.34 30 4 C30 4.66 30 5.32 30 6 C26.06321894 5.58560199 22.52562086 5.1551833 18.71875 4.03125 C14.82233143 2.95073057 11.0654445 2.35425341 7.0625 1.875 C6.37865234 1.78863281 5.69480469 1.70226562 4.99023438 1.61328125 C3.32742954 1.40397715 1.66379487 1.20128278 0 1 C0 0.67 0 0.34 0 0 Z " fill="#364A5D" transform="translate(514,226)"/>
<path d="M0 0 C0.33 0 0.66 0 1 0 C1.04959611 6.13809036 1.08581249 12.27606293 1.10986328 18.41430664 C1.11989427 20.50059034 1.13352226 22.58686008 1.15087891 24.6730957 C1.17525494 27.67923438 1.18651236 30.68518645 1.1953125 33.69140625 C1.20563507 34.61772354 1.21595764 35.54404083 1.22659302 36.49842834 C1.22749151 41.73480568 0.71440648 46.04364493 -1 51 C-1.33 51 -1.66 51 -2 51 C-2.12638792 43.54311275 -2.12638792 43.54311275 -1.51367188 40.91015625 C-0.82396779 37.00270723 -0.7657885 33.16029226 -0.68359375 29.19921875 C-0.66281265 28.36284378 -0.64203156 27.52646881 -0.62062073 26.66474915 C-0.55548966 24.00574579 -0.4964105 21.34664772 -0.4375 18.6875 C-0.39428008 16.87954769 -0.3506647 15.07160478 -0.30664062 13.26367188 C-0.19984584 8.84254378 -0.09847675 4.42132088 0 0 Z " fill="#FFC6BF" transform="translate(779,485)"/>
<path d="M0 0 C-9.54376709 4.21934966 -19.80854342 3.28927715 -30 3 C-30 2.34 -30 1.68 -30 1 C-25.75084331 0.63518695 -21.5006055 0.28499148 -17.25 -0.0625 C-16.0434375 -0.16626953 -14.836875 -0.27003906 -13.59375 -0.37695312 C-12.43359375 -0.47041016 -11.2734375 -0.56386719 -10.078125 -0.66015625 C-9.00981445 -0.74918213 -7.94150391 -0.83820801 -6.84082031 -0.92993164 C-4.28875102 -0.992878 -2.41159078 -0.775881 0 0 Z " fill="#F2A66D" transform="translate(388,494)"/>
<path d="M0 0 C0.66 0.66 1.32 1.32 2 2 C1.38125 2.2475 0.7625 2.495 0.125 2.75 C-2.11216801 3.78921715 -2.11216801 3.78921715 -2.79296875 5.77734375 C-4.46620898 8.85848837 -6.73882882 10.59407044 -9.4375 12.8125 C-10.40558594 13.62332031 -11.37367188 14.43414062 -12.37109375 15.26953125 C-13.23863281 15.84058594 -14.10617187 16.41164063 -15 17 C-15.99 16.67 -16.98 16.34 -18 16 C-17.03578125 15.18015625 -16.0715625 14.3603125 -15.078125 13.515625 C-13.8020077 12.42717201 -12.52597023 11.3386254 -11.25 10.25 C-10.29867187 9.44175781 -10.29867187 9.44175781 -9.328125 8.6171875 C-6.09241332 5.85335044 -2.95242733 3.07171733 0 0 Z " fill="#3E5E78" transform="translate(568,490)"/>
<path d="M0 0 C0.66 0 1.32 0 2 0 C0.6904389 4.74803437 -1.15708888 7.8597195 -4.3125 11.625 C-5.07175781 12.54539062 -5.83101562 13.46578125 -6.61328125 14.4140625 C-8.91632064 16.90933595 -11.29277075 18.95879706 -14 21 C-12.89929352 16.26696214 -11.39631022 14.26598267 -7.53125 11.3671875 C-4.8997453 9.01762973 -3.5901867 6.11921238 -2 3 C-1.34 3 -0.68 3 0 3 C0 2.01 0 1.02 0 0 Z " fill="#EF8F65" transform="translate(557,450)"/>
<path d="M0 0 C0.66 0 1.32 0 2 0 C0.6592992 3.60957906 -0.65436481 6.93072156 -3 10 C-5.72729492 10.56762695 -5.72729492 10.56762695 -8.98046875 10.48828125 C-10.14384766 10.47216797 -11.30722656 10.45605469 -12.50585938 10.43945312 C-13.72080078 10.39755859 -14.93574219 10.35566406 -16.1875 10.3125 C-18.02731445 10.27866211 -18.02731445 10.27866211 -19.90429688 10.24414062 C-22.93741559 10.18513053 -25.96810222 10.10284592 -29 10 C-29 9.67 -29 9.34 -29 9 C-20.75 9 -12.5 9 -4 9 C-3.67 7.35 -3.34 5.7 -3 4 C-2.67 3.34 -2.34 2.68 -2 2 C-1.34 2 -0.68 2 0 2 C0 1.34 0 0.68 0 0 Z " fill="#CD384E" transform="translate(743,626)"/>
<path d="M0 0 C10.75852347 -0.32055191 18.05643799 3.63630639 27 9 C24 10 24 10 21.3125 8.8125 C19.59869934 7.87476002 17.88560029 6.93554253 16.18359375 5.9765625 C10.93449294 3.15583358 5.87307804 1.9146597 0 1 C0 0.67 0 0.34 0 0 Z " fill="#F1AD71" transform="translate(518,359)"/>
<path d="M0 0 C1.32 1.32 2.64 2.64 4 4 C4.33 3.34 4.66 2.68 5 2 C6.86783046 7.48675196 7.2358396 12.22192976 7 18 C4.65365353 15.65365353 4.04558698 13.80109801 2.9375 10.6875 C2.59589844 9.74261719 2.25429688 8.79773438 1.90234375 7.82421875 C1.07098964 5.22218835 0.4747933 2.68723217 0 0 Z " fill="#6B8BA0" transform="translate(653,358)"/>
<path d="M0 0 C1.47197127 2.2079569 2.67236462 4.2270661 3.83984375 6.58203125 C4.18080078 7.26716797 4.52175781 7.95230469 4.87304688 8.65820312 C5.22431641 9.36912109 5.57558594 10.08003906 5.9375 10.8125 C6.45860352 11.86147461 6.45860352 11.86147461 6.99023438 12.93164062 C7.67247781 14.30512129 8.35397674 15.67897206 9.03466797 17.05322266 C10.34981493 19.70546896 11.6744042 22.35296388 13 25 C12.34 25 11.68 25 11 25 C5.08158491 17.57370845 0 9.68847161 0 0 Z " fill="#F5C584" transform="translate(290,440)"/>
<path d="M0 0 C0.66 1.32 1.32 2.64 2 4 C-1.79817765 7.22269618 -5.57391854 9.74520378 -10 12 C-10.66 11.67 -11.32 11.34 -12 11 C-8.04 7.37 -4.08 3.74 0 0 Z " fill="#0E2B4F" transform="translate(350,667)"/>
<path d="M0 0 C0.66 0.33 1.32 0.66 2 1 C-0.94780745 5.3576284 -4.41483595 7.80392004 -8.78125 10.5703125 C-10.93413761 11.9575605 -12.96966556 13.440334 -15 15 C-15.66 14.67 -16.32 14.34 -17 14 C-14.91784697 12.22776281 -12.83433081 10.45717274 -10.75 8.6875 C-10.16347656 8.18798828 -9.57695312 7.68847656 -8.97265625 7.17382812 C-6.04373434 4.68918088 -3.11144626 2.2565687 0 0 Z " fill="#FEEFDA" transform="translate(326,564)"/>
<path d="M0 0 C0 0.66 0 1.32 0 2 C-0.99 2 -1.98 2 -3 2 C-3 2.66 -3 3.32 -3 4 C-4.0725 4.433125 -5.145 4.86625 -6.25 5.3125 C-9.17750767 6.55447295 -11.48458941 8.04356954 -14 10 C-14.66 10 -15.32 10 -16 10 C-16.66 11.32 -17.32 12.64 -18 14 C-18.99 13.67 -19.98 13.34 -21 13 C-6.76190476 0 -6.76190476 0 0 0 Z " fill="#F1B579" transform="translate(487,363)"/>
<path d="M0 0 C1.6168484 3.23369679 0.00851816 6.30628257 -0.9375 9.625 C-1.13279297 10.33140625 -1.32808594 11.0378125 -1.52929688 11.765625 C-2.01314492 13.51219844 -2.50575123 15.25634124 -3 17 C-3.66 15.68 -4.32 14.36 -5 13 C-5.99 13.99 -6.98 14.98 -8 16 C-6.42986223 10.03347646 -3.24970218 5.17090975 0 0 Z " fill="#F6CC83" transform="translate(291,357)"/>
<path d="M0 0 C0 4.43998276 -1.0648804 7.03280951 -4.1640625 10.23828125 C-4.97617187 10.92277344 -5.78828125 11.60726562 -6.625 12.3125 C-7.44226563 13.00988281 -8.25953125 13.70726562 -9.1015625 14.42578125 C-9.72804688 14.94527344 -10.35453125 15.46476563 -11 16 C-11.66 15.67 -12.32 15.34 -13 15 C-12.31292969 14.25234375 -11.62585938 13.5046875 -10.91796875 12.734375 C-10.0077189 11.73966898 -9.09756787 10.74487252 -8.1875 9.75 C-7.73568359 9.25886719 -7.28386719 8.76773438 -6.81835938 8.26171875 C-4.39181973 5.60492352 -2.09650029 2.92534924 0 0 Z " fill="#D95F69" transform="translate(695,550)"/>
<path d="M0 0 C0.33 0 0.66 0 1 0 C1.26580004 4.61401605 0.59747146 7.55414438 -1.4375 11.6875 C-2.78635062 14.4659017 -4.02242128 17.06726383 -5 20 C-5.99 19.67 -6.98 19.34 -8 19 C-7.67386719 18.29875 -7.34773437 17.5975 -7.01171875 16.875 C-4.44978049 11.31279776 -2.0665852 5.76468504 0 0 Z " fill="#E67068" transform="translate(728,490)"/>
<path d="M0 0 C1.18878413 3.56635238 0.72013686 4.60379515 -0.43359375 8.10546875 C-0.75263672 9.08837891 -1.07167969 10.07128906 -1.40039062 11.08398438 C-1.74263672 12.10814453 -2.08488281 13.13230469 -2.4375 14.1875 C-2.77587891 15.22326172 -3.11425781 16.25902344 -3.46289062 17.32617188 C-4.30070748 19.8868234 -5.14668356 22.4444802 -6 25 C-7.28224439 21.15326682 -6.87717559 17.88573397 -6 14 C-5.04504326 12.30712215 -4.0409066 10.64142963 -3 9 C-1.88896951 6.03390051 -0.92994069 3.02725373 0 0 Z " fill="#FEF7D7" transform="translate(267,404)"/>
<path d="M0 0 C-4.76503622 2.23664965 -8.72189402 3.36662728 -14 4 C-14.33 4.33 -14.66 4.66 -15 5 C-16.51928038 5.07179964 -18.04167482 5.08392007 -19.5625 5.0625 C-20.38878906 5.05347656 -21.21507812 5.04445313 -22.06640625 5.03515625 C-22.70449219 5.02355469 -23.34257812 5.01195312 -24 5 C-24 4.67 -24 4.34 -24 4 C-20.75393904 3.1303597 -17.50267592 2.28203087 -14.25 1.4375 C-13.32960938 1.19064453 -12.40921875 0.94378906 -11.4609375 0.68945312 C-10.57148438 0.46064453 -9.68203125 0.23183594 -8.765625 -0.00390625 C-7.94868164 -0.21861572 -7.13173828 -0.4333252 -6.29003906 -0.65454102 C-3.85854591 -1.02133876 -2.31574702 -0.76494053 0 0 Z " fill="#FDE8D4" transform="translate(457,514)"/>
<path d="M0 0 C0.33 0 0.66 0 1 0 C1.02689216 1.47906892 1.04634621 2.95827483 1.0625 4.4375 C1.07410156 5.26121094 1.08570313 6.08492187 1.09765625 6.93359375 C1 9 1 9 0 10 C-0.24261665 12.25543624 -0.38332133 14.50945523 -0.5234375 16.7734375 C-1.08363037 19.39073204 -1.96995128 20.3173393 -4 22 C-3.25403037 14.5403037 -1.63253871 7.31048782 0 0 Z " fill="#FEE8E4" transform="translate(776,540)"/>
<path d="M0 0 C1 3 1 3 -0.43359375 6.35546875 C-1.09148807 7.6380304 -1.75989743 8.91524057 -2.4375 10.1875 C-2.77587891 10.84169922 -3.11425781 11.49589844 -3.46289062 12.16992188 C-4.29969098 13.78459299 -5.14869746 15.39292763 -6 17 C-6.33 17 -6.66 17 -7 17 C-7.42160623 12.36233145 -6.12710211 9.0966411 -4 5 C-3.01 4.67 -2.02 4.34 -1 4 C-0.26676204 1.98491642 -0.26676204 1.98491642 0 0 Z " fill="#D54957" transform="translate(756,602)"/>
<path d="M0 0 C0.66 0 1.32 0 2 0 C2.67561372 2.5395837 3.34065828 5.08118835 4 7.625 C4.19078125 8.33785156 4.3815625 9.05070313 4.578125 9.78515625 C5.65017287 13.95848544 6.21946814 17.65178751 6 22 C3.9282933 18.35118324 2.92431922 14.46766307 1.875 10.4375 C1.69324219 9.76525391 1.51148438 9.09300781 1.32421875 8.40039062 C0.56143029 5.51269145 0 3.0002579 0 0 Z " fill="#EFAA6D" transform="translate(257,549)"/>
<path d="M0 0 C0.33 0.66 0.66 1.32 1 2 C-0.17802952 4.23409134 -1.39521752 6.31485278 -2.75 8.4375 C-3.1109375 9.02337891 -3.471875 9.60925781 -3.84375 10.21289062 C-5.65700546 13.10687262 -7.43083293 15.73165313 -10 18 C-10.66 17.67 -11.32 17.34 -12 17 C-11.30132813 16.02417969 -10.60265625 15.04835938 -9.8828125 14.04296875 C-8.96351652 12.75783049 -8.04424707 11.47267325 -7.125 10.1875 C-6.66480469 9.54490234 -6.20460938 8.90230469 -5.73046875 8.24023438 C-5.28574219 7.61826172 -4.84101562 6.99628906 -4.3828125 6.35546875 C-3.97434082 5.78465576 -3.56586914 5.21384277 -3.14501953 4.62573242 C-2.07137168 3.10133561 -1.0342601 1.55139015 0 0 Z " fill="#DC6A6C" transform="translate(709,530)"/>
<path d="M0 0 C0.33 0.99 0.66 1.98 1 3 C-1.64 5.64 -4.28 8.28 -7 11 C-7.99 10.67 -8.98 10.34 -10 10 C-6.7 6.7 -3.4 3.4 0 0 Z " fill="#FEF3E0" transform="translate(305,582)"/>
<path d="M0 0 C0.33 1.32 0.66 2.64 1 4 C-0.43359375 6.140625 -0.43359375 6.140625 -2.4375 8.25 C-3.09621094 8.95640625 -3.75492188 9.6628125 -4.43359375 10.390625 C-4.95050781 10.92171875 -5.46742188 11.4528125 -6 12 C-6.99 11.67 -7.98 11.34 -9 11 C-6.03 7.37 -3.06 3.74 0 0 Z " fill="#3E5E79" transform="translate(578,478)"/>
<path d="M0 0 C0.33 0 0.66 0 1 0 C1.3690205 13.6332574 1.3690205 13.6332574 -1 20 C-1.33 20 -1.66 20 -2 20 C-2.26404456 13.13484138 -1.25841946 6.74153283 0 0 Z " fill="#FEDFD7" transform="translate(779,516)"/>
<path d="M0 0 C0.66 0 1.32 0 2 0 C1.40984815 5.50808397 0.43336231 10.64878069 -1 16 C-1.66 15.01 -2.32 14.02 -3 13 C-2.40265389 10.97821315 -1.72351427 8.98014432 -1 7 C-0.62468554 4.67305036 -0.28082798 2.34023315 0 0 Z " fill="#E26766" transform="translate(771,554)"/>
<path d="M0 0 C0.99 0.495 0.99 0.495 2 1 C3.5157861 6.37415073 2.69927585 11.55640643 2 17 C1.67 17 1.34 17 1 17 C0.00749455 11.29309366 -0.10477512 5.78591511 0 0 Z " fill="#F1B376" transform="translate(253,519)"/>
<path d="M0 0 C0.66 0.33 1.32 0.66 2 1 C0.35 6.28 -1.3 11.56 -3 17 C-5 13 -5 13 -4.1015625 9.765625 C-3.61429687 8.60546875 -3.12703125 7.4453125 -2.625 6.25 C-2.14289063 5.07953125 -1.66078125 3.9090625 -1.1640625 2.703125 C-0.77992188 1.81109375 -0.39578125 0.9190625 0 0 Z " fill="#FEEFD7" transform="translate(453,392)"/>
<path d="M0 0 C-9.41002278 4.40774487 -9.41002278 4.40774487 -14 5 C-14 4.34 -14 3.68 -14 3 C-12.42274653 2.29866401 -10.83788667 1.614417 -9.25 0.9375 C-7.92742187 0.36322266 -7.92742187 0.36322266 -6.578125 -0.22265625 C-3.84743691 -1.04600008 -2.63098653 -0.9773992 0 0 Z " fill="#EC8A61" transform="translate(502,498)"/>
<path d="M0 0 C0.33 0.66 0.66 1.32 1 2 C0.67 2.99 0.34 3.98 0 5 C-0.66 5 -1.32 5 -2 5 C-2.12375 5.721875 -2.2475 6.44375 -2.375 7.1875 C-2.9904931 9.95721894 -3.88444374 12.3970354 -5 15 C-5.33 15 -5.66 15 -6 15 C-6.125 9.25 -6.125 9.25 -5 7 C-4.34 7 -3.68 7 -3 7 C-3 6.01 -3 5.02 -3 4 C-2.34 4 -1.68 4 -1 4 C-0.67 2.68 -0.34 1.36 0 0 Z " fill="#FEF4D4" transform="translate(282,371)"/>
<path d="M0 0 C0.66 0.33 1.32 0.66 2 1 C0.02 1.99 0.02 1.99 -2 3 C-2 3.66 -2 4.32 -2 5 C-3.75 6.6875 -3.75 6.6875 -6 8 C-7.32 7.67 -8.64 7.34 -10 7 C-6.7 4.69 -3.4 2.38 0 0 Z " fill="#FEF2DE" transform="translate(338,556)"/>
<path d="M0 0 C0.33 0 0.66 0 1 0 C0.54996653 5.62541841 -0.68441485 8.61487125 -4 13 C-4.66 12.67 -5.32 12.34 -6 12 C-4.02 8.04 -2.04 4.08 0 0 Z " fill="#E16C6B" transform="translate(719,511)"/>
<path d="M0 0 C0.33 0 0.66 0 1 0 C1.3457886 5.64788053 0.56064053 9.07569129 -2 14 C-2.99 14.495 -2.99 14.495 -4 15 C-3.79503906 14.25234375 -3.59007812 13.5046875 -3.37890625 12.734375 C-3.10949219 11.74953125 -2.84007812 10.7646875 -2.5625 9.75 C-2.29566406 8.77546875 -2.02882813 7.8009375 -1.75390625 6.796875 C-1.14455416 4.53627347 -0.55761745 2.27377991 0 0 Z " fill="#E88476" transform="translate(733,474)"/>
<path d="M0 0 C0.33 0.66 0.66 1.32 1 2 C-1.12081604 6.32018082 -2.79664822 9.44796499 -7 12 C-5.44298069 7.32894208 -2.91552627 3.91294315 0 0 Z " fill="#678299" transform="translate(403,337)"/>
<path d="M0 0 C3.09592835 3.5087188 4.74194623 6.49197399 6 11 C5.01 11.495 5.01 11.495 4 12 C3.32332002 10.75539217 2.65905281 9.50403104 2 8.25 C1.62875 7.55390625 1.2575 6.8578125 0.875 6.140625 C0 4 0 4 0 0 Z " fill="#EFA571" transform="translate(559,383)"/>
<path d="M0 0 C0.66 0 1.32 0 2 0 C0.66511872 3.59391114 -0.96022723 6.75490696 -3 10 C-3.93065133 7.39417629 -4.14917407 6.35801776 -3.0625 3.75 C-2.711875 3.1725 -2.36125 2.595 -2 2 C-1.34 2 -0.68 2 0 2 C0 1.34 0 0.68 0 0 Z " fill="#D34759" transform="translate(743,626)"/>
<path d="M0 0 C0.33 0.66 0.66 1.32 1 2 C0.34 2 -0.32 2 -1 2 C-1 2.66 -1 3.32 -1 4 C-6.5 7.125 -6.5 7.125 -11 6 C-7.37 4.02 -3.74 2.04 0 0 Z " fill="#CD5669" transform="translate(628,609)"/>
<path d="M0 0 C0.99 0.33 1.98 0.66 3 1 C0.36 3.64 -2.28 6.28 -5 9 C-5.66 8.67 -6.32 8.34 -7 8 C-4.69 5.36 -2.38 2.72 0 0 Z " fill="#D94554" transform="translate(674,574)"/>
<path d="M0 0 C2.31 0 4.62 0 7 0 C7 0.99 7 1.98 7 3 C3.98968256 3.93423645 3.13349732 4.04449911 0 3 C0 2.01 0 1.02 0 0 Z " fill="#051A38" transform="translate(541,228)"/>
<path d="M0 0 C6.75 -0.125 6.75 -0.125 9 1 C9 1.66 9 2.32 9 3 C9.99 3.33 10.98 3.66 12 4 C7.6822542 3.49202991 3.96697886 2.80317221 0 1 C0 0.67 0 0.34 0 0 Z " fill="#FDEBCF" transform="translate(336,489)"/>
<path d="M0 0 C0.33 0.99 0.66 1.98 1 3 C-0.43359375 5.04296875 -0.43359375 5.04296875 -2.4375 7.1875 C-3.09621094 7.90292969 -3.75492187 8.61835938 -4.43359375 9.35546875 C-4.95050781 9.89816406 -5.46742188 10.44085938 -6 11 C-6 7.39426104 -5.18292538 6.58663434 -3 3.8125 C-2.443125 3.09707031 -1.88625 2.38164062 -1.3125 1.64453125 C-0.879375 1.10183594 -0.44625 0.55914062 0 0 Z " fill="#F2B579" transform="translate(465,377)"/>
<path d="M0 0 C2.66420516 2.66420516 4.43098409 4.61422883 6 8 C5.1875 10.3125 5.1875 10.3125 4 12 C3.67 12 3.34 12 3 12 C2.01 8.04 1.02 4.08 0 0 Z " fill="#E4A57A" transform="translate(734,352)"/>
<path d="M0 0 C1.90318884 2.85478326 2.4619099 4.41941308 3.125 7.6875 C3.29257812 8.49574219 3.46015625 9.30398438 3.6328125 10.13671875 C3.75398438 10.75160156 3.87515625 11.36648438 4 12 C3.01 12 2.02 12 1 12 C0.67 8.04 0.34 4.08 0 0 Z " fill="#FDE9CA" transform="translate(260,564)"/>
<path d="M0 0 C0.350625 0.474375 0.70125 0.94875 1.0625 1.4375 C3.84163543 3.67873825 6.5144717 3.67117658 10 4 C10 4.33 10 4.66 10 5 C6.37 5 2.74 5 -1 5 C-0.67 3.35 -0.34 1.7 0 0 Z " fill="#5B768B" transform="translate(369,460)"/>
<path d="M0 0 C1.60031344 3.20062687 0.03173691 5.72271806 -1 9 C-2.32 9.33 -3.64 9.66 -5 10 C-3.66511872 6.40608886 -2.03977277 3.24509304 0 0 Z " fill="#F3D298" transform="translate(291,357)"/>
<path d="M0 0 C6.75 -0.125 6.75 -0.125 9 1 C9 1.66 9 2.32 9 3 C2.84765625 2.4140625 2.84765625 2.4140625 1 2 C0.67 1.34 0.34 0.68 0 0 Z " fill="#051B34" transform="translate(530,227)"/>
<path d="M0 0 C0.66 0.66 1.32 1.32 2 2 C1.34 2.66 0.68 3.32 0 4 C-0.71927295 6.31765729 -1.3909893 8.65095874 -2 11 C-3.67830848 7.64338305 -2.6353188 4.63864406 -2 1 C-1.34 0.67 -0.68 0.34 0 0 Z " fill="#FAC575" transform="translate(262,428)"/>
<path d="M0 0 C0.33 0.66 0.66 1.32 1 2 C0.0625 4.125 0.0625 4.125 -1 6 C-1.66 6 -2.32 6 -3 6 C-3.33 6.99 -3.66 7.98 -4 9 C-4.66 8.67 -5.32 8.34 -6 8 C-4.02 5.36 -2.04 2.72 0 0 Z " fill="#E7F0F4" transform="translate(281,736)"/>
<path d="M0 0 C0 0.66 0 1.32 0 2 C-0.99 2.495 -0.99 2.495 -2 3 C-2.33 3.99 -2.66 4.98 -3 6 C-4.32 5.34 -5.64 4.68 -7 4 C-6.34 4 -5.68 4 -5 4 C-4.67 3.01 -4.34 2.02 -4 1 C-2 0 -2 0 0 0 Z " fill="#3B5A77" transform="translate(387,566)"/>
<path d="M0 0 C0.33 0 0.66 0 1 0 C1.66 3.3 2.32 6.6 3 10 C2.01 10 1.02 10 0 10 C0 6.7 0 3.4 0 0 Z " fill="#FEEED2" transform="translate(257,552)"/>
<path d="M0 0 C1.10191901 4.40767604 0.58706842 5.8922935 -1 10 C-1.66 10 -2.32 10 -3 10 C-2.01 6.7 -1.02 3.4 0 0 Z " fill="#F8D191" transform="translate(271,396)"/>
</svg>
